<?xml version="1.0" encoding="UTF-8"?>
<!DOCTYPE svg PUBLIC "-//W3C//DTD SVG 1.1//EN" "http://www.w3.org/Graphics/SVG/1.1/DTD/svg11.dtd">
<!-- Creator: CorelDRAW 2021 (64-Bit) -->
<svg xmlns="http://www.w3.org/2000/svg" xml:space="preserve" width="22359px" height="3111px" version="1.1" style="shape-rendering:geometricPrecision; text-rendering:geometricPrecision; image-rendering:optimizeQuality; fill-rule:evenodd; clip-rule:evenodd"
viewBox="0 0 75170.336 10460.569"
 xmlns:xlink="http://www.w3.org/1999/xlink"
 xmlns:xodm="http://www.corel.com/coreldraw/odm/2003">
 <defs>
  <style type="text/css">
   <![CDATA[
    .fil0 {fill:url(#id0);fill-rule:nonzero}
   ]]>
  </style>
  <linearGradient id="id0" gradientUnits="userSpaceOnUse" x1="46376.128" y1="-11014.028" x2="28794.209" y2="21474.596">
   <stop offset="0" style="stop-opacity:1; stop-color:#B5A8E0"/>
   <stop offset="0.129412" style="stop-opacity:1; stop-color:#D0C6EF"/>
   <stop offset="0.239216" style="stop-opacity:1; stop-color:#ECE5FF"/>
   <stop offset="0.384314" style="stop-opacity:1; stop-color:#E0D9F3"/>
   <stop offset="0.490196" style="stop-opacity:1; stop-color:#D3CCE7"/>
   <stop offset="0.74902" style="stop-opacity:1; stop-color:#A296C8"/>
   <stop offset="0.933333" style="stop-opacity:1; stop-color:#C8BCE3"/>
   <stop offset="1" style="stop-opacity:1; stop-color:#EEE3FF"/>
  </linearGradient>
 </defs>
 <g id="_23Layer_x0020_1">
  <metadata id="CorelCorpID_0Corel-Layer"/>
  <path class="fil0" d="M23188.331 2728.794c1769.664,-1472.008 3806.846,-2486.813 5928.793,-2706.144 1207.389,-84.103 2494.224,37.872 3550.931,849.848 690.881,513.616 1301.341,1314.78 1486.033,2326.126 157.768,748.627 11.768,1590.944 -376.458,2190.282 -508.77,700.572 -1248.487,1055.132 -1979.007,1196.862 -872.821,129.314 -1800.287,18.943 -2574.002,-544.977 -357.45,-258.643 -629.315,-705.454 -729.24,-1211.538 -97.825,-648.022 140.372,-1318.239 536.811,-1727.792 793.208,-774.896 1964.821,-854.73 2821.856,-200.388 288.315,216.083 538.754,609.131 491.209,1055.942 -43.03,391.627 -345.042,624.811 -621.578,723.786 -549.215,206.917 -1152.591,-38.698 -1566.922,-516.867 -114.75,450.883 152.125,883.648 476.856,1032.924 729.24,365.959 1699.877,141.743 2147.415,-722.976 310.391,-583.672 93.952,-1372.421 -296.205,-1804.361 -928.912,-1039.44 -2382.864,-1130.07 -3446.02,-370.855 -463.169,355.984 -880.56,877.749 -1041.717,1547.156 -238.03,860.436 18.214,1874.417 571.462,2445.676 512.634,548.241 1173.377,816.857 1828.965,936.391 916.502,158.232 1880.54,60.083 2726.614,-438.469 446.721,-280.222 858.317,-670.217 1146.63,-1190.347 293.624,-447.636 351.644,-1056.751 628.19,-1515.783 533.586,-956.356 1663.946,-1190.348 2457.807,-644.758 349.713,225.038 669.927,596.912 769.687,1092.199 100.563,464.946 -87.353,966.942 -391.285,1237.4 -390.809,340.306 -928.258,419.526 -1357.429,148.258 -151.321,-107.928 -302.013,-313.215 -249.788,-551.489 50.118,-230.744 243.186,-328.895 390.644,-440.911 -369.857,-117.094 -757.917,283.487 -757.917,758.408 -13.7,403.023 264.778,702.188 540.032,829.271 632.054,260.471 1386.107,81.468 1852.5,-536.62 162.45,-235.834 365.983,-414.644 555.831,-612.59 523.109,-576.948 1282.319,-799.545 1952.26,-566.975 626.897,225.038 1127.775,944.539 1168.873,1777.076 536.975,-738.446 1204.164,-1375.671 1994.803,-1587.47 573.392,-157.633 1198.844,-184.708 1745.49,119.339 234.808,135.23 462.518,352.121 551.8,671.041 107.01,380.02 -52.699,832.537 -330.052,1021.319 -286.37,199.579 -650.907,202.845 -948.405,40.33 -186.457,-103.855 -264.138,-438.47 -118.613,-632.134 103.621,-173.103 285.565,-164.957 439.634,-173.103 -175.495,-324.011 -532.305,-150.908 -698.616,92.25 -261.556,339.69 -191.127,956.968 133.603,1193.612 429.324,324.821 994.172,250.691 1417.536,-54.377 472.84,-317.286 759.209,-912.565 1175.475,-1319.676 516.509,-512.793 1208.681,-816.858 1863.451,-620.738 302.652,102.239 613.198,323.203 742.286,701.382 86.215,263.928 -36.417,561.463 -223.68,693.442 -280.409,193.68 -637.219,184.516 -917.783,-4.282 -73.651,-47.863 -202.894,-123.622 -254.303,2.442 -128.601,187.148 -14.338,464.946 143.429,554.755 525.692,340.513 1286.349,190.413 1608.508,-473.095 217.235,-484.699 103.136,-1105.421 -203.381,-1485.441 108.944,-308.945 324.092,-533.983 503.451,-779.792 928.91,-1204.202 2038.473,-2179.291 3237.955,-2903.074 1172.253,-737.023 2429.758,-1294.219 3733.847,-1495.221 1108.756,-168.221 2260.708,-154.982 3331.115,287.56 945.182,419.736 1850.57,1191.98 2306.641,2350.97 284.924,692.426 287.662,1565.277 -26.748,2242.832 -231.585,530.928 -645.752,886.912 -1077.008,1121.924 -971.941,520.939 -2093.744,519.307 -3085.996,86.559 -374.374,-154.982 -722.793,-426.251 -974.511,-811.152 -262.209,-398.949 -382.907,-959.41 -260.265,-1463.038 135.69,-632.343 576.616,-1085.668 1051.553,-1295.851 752.765,-331.349 1641.062,-249.673 2303.252,337.25 243.186,207.516 437.702,567.783 405.634,951.876 -40.445,379.198 -318.283,631.535 -590.967,732.951 -555.662,234.815 -1157.745,-79.223 -1579.177,-544.169 -74.292,283.683 -22.245,610.958 174.215,793.841 667.83,663.507 1746.131,542.324 2307.767,-263.735 247.856,-357.003 320.868,-882.016 170.826,-1320.486 -239.962,-689.16 -774.841,-1138.427 -1327.932,-1356.937 -626.899,-262.102 -1313.75,-243.157 -1943.869,-11.41 -579.84,210.167 -1116.01,690.792 -1387.401,1384.027 -291.537,691.406 -244.632,1578.514 104.914,2223.887 330.858,646.196 879.434,1051.059 1438.974,1309.688 1071.687,447.635 2270.056,448.443 3322.89,-86.35 575.323,-280.431 1071.047,-809.518 1382.731,-1481.367 294.273,-593.452 529.083,-1294.219 1038.493,-1648.571 765.171,-565.538 1875.384,-318.921 2354.825,657.802 331.983,642.123 86.7,1586.662 -454.626,1908.233 -237.545,190.413 -528.432,192.045 -795.153,125.24 146.012,-242.351 302.654,-562.079 187.749,-872.851 -170.186,-352.121 -526.333,-438.471 -821.899,-324.011 -62.523,81.66 -116.681,173.101 -146.651,281.046 16.282,-37.874 48.835,-114.459 65.273,-153.141 148.583,20.577 338.431,-52.953 454.625,106.311 185.167,223.406 144.72,643.742 -47.058,842.317 -131.661,141.744 -282.994,249.882 -425.295,371.874 470.255,469.018 1163.719,400.581 1663.293,39.504 443.664,-308.332 684.268,-908.297 1097.321,-1266.11 491.694,-477.361 1207.389,-628.06 1765.636,-248.862 237.545,157.422 403.217,449.056 461.225,778.968 -92.66,236.434 -197.099,485.509 -172.273,759.023 5.962,401.405 247.856,722.975 510.869,907.683 503.449,333.791 1152.591,295.093 1627.363,-100.605 178.72,-141.743 269.459,-425.426 148.75,-662.684 -267.363,182.073 -540.686,381.651 -850.591,406.287 -327.469,34.623 -690.073,-72.496 -917.783,-388.976 -251.732,-358.635 -154.545,-947.998 126.505,-1235.769 342.46,-382.461 816.745,-450.883 1253.155,-512.598 1022.057,-139.303 2121.143,164.76 2918.229,1016.226 427.391,455.976 731.975,1169.787 638.025,1891.115 -48.351,422.791 -273.963,770.629 -542.132,1012.154 -599.984,586.922 -1380.785,713.811 -2110.666,826.831 -1933.394,192.856 -3874.69,201.002 -5811.318,315.656 -1521.159,65.174 -3041.676,-29.728 -4560.901,-119.55 -1114.718,-64.349 -2224.932,94.705 -3335.785,175.543 -2496.321,216.892 -4998.437,3.264 -7487.02,-264.543 -787.248,-109.77 -1570.634,90.632 -2355.95,135.229 -1326.156,60.082 -2652.323,-17.311 -3978.48,-20.77 -628.022,-27.091 -1257.504,-110.385 -1885.053,-29.533 -1389.332,172.295 -2781.401,327.277 -4177.996,339.497 -1739.528,12.429 -3477.28,-114.459 -5214.391,-211.801 -1658.791,-45.42 -3311.609,177.177 -4967.816,238.277 -2430.409,161.496 -4865.485,-11.605 -7289.933,-237.453 -1564.827,-128.504 -3134.986,-226.669 -4703.689,-136.037 -3091.304,66.79 -6173.912,474.111 -9267.162,427.882 -1875.384,-8.356 -3752.699,-59.259 -5621.472,-272.076 -399.828,-59.259 -836.238,-102.239 -1166.93,-424.408 -180.663,-163.324 -286.371,-489.791 -168.242,-747.61 177.439,-450.886 578.546,-661.052 946.472,-764.114 -702.48,-642.123 -1249.765,-1592.562 -1405.129,-2683.937 -184.525,-1201.144 157.296,-2469.696 825.93,-3339.297 731.813,-931.51 1729.207,-1482.79 2748.04,-1675.857 1313.109,-249.673 2707.596,-20.575 3870.023,819.495 685.558,496.919 1329.379,1167.944 1691.343,2072.977 308.614,764.114 357.451,1741.839 -23.369,2479.474 -377.111,795.474 -1070.408,1238.211 -1754.035,1480.561 -1004.494,329.717 -2098.424,257.011 -3062.459,-233.38 -510.869,-258.838 -989.018,-730.298 -1183.379,-1399.707 -160.353,-508.524 -60.593,-1114.391 210.798,-1531.475 356.159,-574.507 921.659,-867.161 1478.613,-978.354 569.528,-61.101 1166.932,-32.992 1693.43,276.972 331.343,184.515 654.937,468.196 812.063,894.236 136.343,347.838 -23.523,773.265 -278.477,952.074 -448.179,325.643 -1018.194,363.516 -1500.371,134.405 -253.662,-105.488 -453.973,-333.791 -663.326,-533.37 -42.39,252.323 -27.399,537.444 124.574,728.666 403.217,554.754 1053.484,637.225 1611.884,538.252 438.344,-93.881 884.424,-340.306 1153.884,-803.62 251.078,-478.169 212.565,-1143.309 -57.369,-1596.634 -428.672,-736.199 -1136.96,-1125.999 -1837.51,-1247.165 -848.007,-179.828 -1751.45,31.358 -2472.952,630.516 -372.43,354.561 -712.316,811.15 -848.647,1386.468 -211.924,772.454 -16.282,1666.69 426.741,2247.115 590.966,806.059 1451.867,1176.301 2290.204,1346.961 965.979,167.203 1987.385,74.13 2877.781,-459.24 696.034,-404.654 1311.816,-1097.08 1611.885,-2001.305 165.02,-441.929 204.187,-952.073 422.712,-1363.451 272.684,-443.561 729.24,-650.464 1163.553,-659.434 580.005,-33.8 1174.184,253.956 1566.925,800.354 184.527,278.59 297.984,650.464 268.002,1017.244 -131.02,939.659 -1082.162,1495.222 -1736.945,1021.319 -182.108,-116.284 -291.692,-417.891 -183.401,-654.536 125.866,-236.644 369.858,-228.303 559.693,-327.277 -348.907,-227.477 -859.774,-63.541 -999.339,427.883 -135.689,449.253 90.728,967.766 444.955,1115.201 662.035,309.14 1497.634,49.495 1913.093,-694.044 262.207,-431.954 557.121,-862.263 962.757,-1080.576 544.712,-325.644 1246.543,-262.103 1699.877,262.91 351.644,431.956 448.818,1073.256 502.975,1664.25 375.014,-765.729 921.658,-1439.212 1615.109,-1712.111 451.403,-194.488 982.251,-289.389 1413.507,30.55 211.924,136.861 363.245,440.911 304.585,747.611 -142.136,634.783 -818.037,996.473 -1263.467,628.884 -133.757,-97.147 -55.437,-304.049 -12.407,-436.838 -341.82,-46.229 -539.393,529.297 -288.954,815.226 493.781,541.516 1346.303,300.799 1655.568,-410.572 73.651,-166.378 69.136,-378.177 172.758,-525.013 904.737,-1435.962 2005.113,-2669.08 3211.85,-3687.135l-0.023 -0.045z"/>
 </g>
</svg>
