<?xml version="1.0" encoding="UTF-8"?>
<!DOCTYPE svg PUBLIC "-//W3C//DTD SVG 1.1//EN" "http://www.w3.org/Graphics/SVG/1.1/DTD/svg11.dtd">
<!-- Creator: CorelDRAW 2021 (64-Bit) -->
<svg xmlns="http://www.w3.org/2000/svg" xml:space="preserve" width="1398px" height="411px" version="1.1" style="shape-rendering:geometricPrecision; text-rendering:geometricPrecision; image-rendering:optimizeQuality; fill-rule:evenodd; clip-rule:evenodd"
viewBox="0 0 244.65 71.984"
 xmlns:xlink="http://www.w3.org/1999/xlink"
 xmlns:xodm="http://www.corel.com/coreldraw/odm/2003">
 <defs>
  <style type="text/css">
   <![CDATA[
    .fil0 {fill:#AEB1CA;fill-rule:nonzero}
   ]]>
  </style>
 </defs>
 <g id="__x0023_Layer_x0020_1">
  <metadata id="CorelCorpID_0Corel-Layer"/>
  <path class="fil0" d="M186.387 10.392c-11.904,-8.695 -27.39,-11.981 -41.879,-9.679 -7.809,1.36 -15.406,4.824 -21.004,10.514 -4.515,4.398 -7.768,10.12 -9.099,16.291 -1.247,5.427 -0.066,11.197 2.688,15.978 -2.17,-2.021 -3.636,-4.632 -5.336,-7.032 -3.661,-5.022 -9.055,-8.822 -15.099,-10.361 -5.419,-1.287 -11.273,-1.28 -16.499,0.799 -4.03,1.521 -7.746,4.285 -9.712,8.195 -1.444,2.742 -1.747,6.222 -0.284,9.015 2.013,3.221 5.576,5.051 9.084,6.193 3.378,1.138 6.988,1.134 10.511,0.992 1.557,-0.161 3.319,-0.357 4.464,-1.546 0.708,-0.664 0.773,-1.798 0.285,-2.601 -1.04,-1.834 -3.538,-2.502 -5.456,-1.834 -0.825,0.27 -0.682,1.229 -0.846,1.911 -1.135,0.981 -3.327,0.634 -3.706,-0.945 -0.438,-1.688 0.923,-3.289 2.517,-3.661 3.056,-0.712 6.539,-0.15 8.949,1.951 1.766,1.327 2.623,3.898 1.521,5.915 -1.309,2.396 -4.135,3.312 -6.67,3.728 -5.135,0.645 -10.515,-0.03 -15.146,-2.426 -2.867,-1.488 -5.314,-3.665 -7.484,-6.028 -2.83,-2.896 -6.426,-5.172 -10.438,-5.945 -4.942,-0.988 -10.277,-0.23 -14.614,2.392 -2.122,1.335 -3.946,3.279 -4.792,5.668 -0.963,2.812 -0.047,6.116 2.174,8.075 2.961,2.72 7.21,3.322 11.076,2.99 -3.811,2.451 -9.118,1.641 -12.418,-1.316 -1.521,-1.295 -2.364,-3.232 -4.041,-4.366 -2.52,-1.878 -6.153,-2.25 -8.939,-0.751 -1.16,0.591 -1.835,1.79 -1.973,3.063 0.959,0.945 1.553,2.305 1.236,3.666 -0.204,1.433 -1.546,2.352 -2.826,2.775 -1.787,0.558 -3.91,0.521 -5.496,-0.551 -0.836,-0.561 -0.496,-1.674 -0.008,-2.341 1.182,0.47 2.382,1.116 3.695,0.937 1.203,-0.102 2.626,-0.963 2.556,-2.323 -0.062,-1.601 -1.488,-2.764 -2.895,-3.264 -4.03,-1.39 -8.513,-0.894 -12.415,0.689 -2.808,1.189 -5.554,2.903 -7.228,5.525 -0.938,1.598 -1.284,3.87 -0.011,5.391 1.4,1.805 3.709,2.472 5.809,3.082 5.121,1.188 10.405,1.389 15.639,1.648 5.252,0.306 10.489,-0.299 15.722,-0.569 2.437,-0.31 4.877,0.011 7.298,0.255 10.894,1.262 21.868,1.273 32.816,1.35 6.087,-0.197 12.178,-0.215 18.257,-0.547 4.001,-0.03 7.987,-0.551 11.992,-0.398 4.759,0.15 9.5,0.606 14.26,0.751 8.268,0.114 16.539,0.234 24.803,-0.058 7.283,-0.416 14.585,-0.434 21.879,-0.328 11.287,0.47 22.59,0.948 33.892,0.609 5.583,-0.19 11.174,-0.131 16.762,-0.248 5.226,-0.281 10.467,-0.15 15.682,-0.595 2.287,-0.2 4.646,-0.244 6.813,-1.094 0.809,-0.324 1.623,-0.824 1.976,-1.655 0.474,-1.011 0.146,-2.247 -0.609,-3.027 -1.167,-1.226 -2.844,-1.85 -4.504,-2.021 3.031,-2.298 4.997,-6.039 4.905,-9.873 -0.094,-3.388 -1.572,-6.63 -3.793,-9.15 -4.175,-4.847 -10.251,-7.75 -16.47,-8.899 -5.291,-0.857 -10.82,-0.784 -15.948,0.901 -3.713,1.28 -6.981,3.618 -9.727,6.393 -1.276,1.302 -2.669,2.513 -4.256,3.436 1.174,-1.408 2.447,-2.75 3.388,-4.336 2.885,-4.552 3.133,-10.409 1.539,-15.464 -2.301,-6.499 -7.093,-11.798 -12.567,-15.846zm-29.662 1.557l0 0c6.911,2.568 13.356,6.816 17.936,12.648 3.516,4.555 5.978,10.157 5.898,15.992 0.018,5.022 -2.028,10.099 -5.814,13.454 -4.15,3.903 -9.814,6.014 -15.463,6.277 4.318,-1.393 8.519,-3.432 11.732,-6.707 5.011,-4.771 7.035,-12.404 5.044,-19.03 -1.473,-5.27 -4.953,-9.738 -9.077,-13.228 -4.687,-3.779 -10.325,-6.459 -16.317,-7.283 -6.317,-0.956 -13.075,-0.168 -18.644,3.107 -4.03,2.265 -7.717,5.532 -9.551,9.858 -1.266,3.264 -1.485,7.086 0.069,10.295 1.484,3.542 4.752,5.992 8.242,7.36 3.881,1.455 8.17,1.641 12.232,0.989 3.359,-0.631 6.769,-2.218 8.691,-5.157 1.521,-2.221 1.131,-5.365 -0.521,-7.404 -1.696,-2.239 -4.413,-3.457 -7.112,-3.975 -3.363,-0.54 -7.042,-0.117 -9.884,1.878 -1.287,0.868 -2.097,2.524 -1.59,4.063 0.321,1.262 1.587,1.947 2.761,2.235 2.564,0.734 5.263,-0.175 7.52,-1.404 0.051,1.018 -0.229,2.061 -1.028,2.747 -1.754,1.553 -4.296,1.743 -6.521,1.415 -2.513,-0.409 -5.131,-1.944 -5.85,-4.534 -0.664,-2.316 0.522,-4.73 2.232,-6.262 2.673,-2.356 6.324,-3.355 9.84,-3.264 4.227,-0.076 8.534,1.51 11.488,4.574 2.057,2.13 3.224,5.244 2.608,8.195 -0.442,2.542 -2.006,4.777 -4.03,6.334 -2.615,2.211 -5.996,3.283 -9.322,3.848 -6.714,0.992 -14.107,-0.583 -19.143,-5.328 -3.017,-2.735 -4.92,-6.652 -5.143,-10.722 -0.266,-5.537 2.24,-11.018 6.189,-14.822 3.862,-4.015 9.129,-6.375 14.497,-7.582 5.985,-1.156 12.335,-0.825 18.031,1.433zm68.926 33.52l0 0c1.94,1.572 3.592,3.811 3.68,6.397 0.215,3.326 -1.784,6.404 -4.355,8.352 -3.169,2.345 -7.002,3.658 -10.883,4.205 -4.985,0.846 -10.204,0.605 -14.982,-1.124 -3.939,-1.323 -7.509,-3.924 -9.522,-7.615 0.018,-0.084 0.054,-0.248 0.073,-0.332 3.067,2.871 6.947,4.789 11.061,5.591 6.412,1.368 13.319,0.981 19.355,-1.685 2.144,-1.083 4.347,-2.498 5.423,-4.73 1.109,-2.221 0.204,-5.033 -1.67,-6.535 -2.473,-2.075 -5.795,-2.9 -8.976,-2.845 -2.957,0.033 -6.039,0.842 -8.293,2.837 -1.039,0.923 -1.896,2.495 -1.112,3.844 0.773,1.609 2.695,2.123 4.321,2.32 2.477,0.16 5.124,-0.416 6.999,-2.134 0.303,0.85 0.285,1.828 -0.354,2.524 -1.692,2.021 -4.551,2.491 -7.049,2.28 -2.634,-0.15 -5.332,-1.364 -6.78,-3.644 -1.032,-1.553 -0.967,-3.68 0.003,-5.244 1.518,-2.55 4.205,-4.253 7.032,-5 5.357,-1.521 11.474,-0.777 16.029,2.538z"/>
 </g>
</svg>
