<?xml version="1.0" encoding="UTF-8"?>
<!DOCTYPE svg PUBLIC "-//W3C//DTD SVG 1.1//EN" "http://www.w3.org/Graphics/SVG/1.1/DTD/svg11.dtd">
<!-- Creator: CorelDRAW 2021 (64-Bit) -->
<svg xmlns="http://www.w3.org/2000/svg" xml:space="preserve" width="613px" height="1790px" version="1.1" style="shape-rendering:geometricPrecision; text-rendering:geometricPrecision; image-rendering:optimizeQuality; fill-rule:evenodd; clip-rule:evenodd"
viewBox="0 0 602.55 1759.27"
 xmlns:xlink="http://www.w3.org/1999/xlink"
 xmlns:xodm="http://www.corel.com/coreldraw/odm/2003">
 <defs>
  <style type="text/css">
   <![CDATA[
    .fil1 {fill:#1C1C1A;fill-rule:nonzero}
    .fil0 {fill:#3B3B3B;fill-rule:nonzero}
    .fil4 {fill:white;fill-rule:nonzero;fill-opacity:0.431373}
    .fil2 {fill:#DADADA;fill-rule:nonzero;fill-opacity:0.439216}
    .fil3 {fill:#D1D1D1;fill-rule:nonzero}
   ]]>
  </style>
 </defs>
 <g id="__x0023_Layer_x0020_1">
  <metadata id="CorelCorpID_0Corel-Layer"/>
  <g id="_2250241184608">
   <path class="fil0" d="M378.78 35.01c-2.44,-14.31 -14.85,-24.77 -29.36,-24.77l-48.14 0 -48.14 0c-14.52,0 -26.92,10.46 -29.37,24.77l-15.1 88.54 92.61 0 92.6 0 -15.1 -88.54z"/>
   <path class="fil1" d="M393.88 133.79l-185.21 0c-3.01,0 -5.88,-1.33 -7.82,-3.63 -1.95,-2.31 -2.78,-5.35 -2.27,-8.33l15.1 -88.54c3.3,-19.29 19.89,-33.29 39.46,-33.29l96.27 0c19.57,0 36.17,14 39.46,33.29 0,0 0,0 0,0l15.1 88.54c0.51,2.98 -0.32,6.02 -2.27,8.33 -1.94,2.3 -4.8,3.63 -7.82,3.63zm-173.08 -20.47l0 0 160.95 0 -13.06 -76.59c-1.61,-9.42 -9.72,-16.26 -19.28,-16.26l-96.27 0c-9.56,0 -17.67,6.84 -19.27,16.26l-13.07 76.59z"/>
   <path class="fil2" d="M254.49 21.93l-16.86 89.96 50.66 0 0 -89.96 -33.8 0z"/>
   <path class="fil3" d="M354.26 21.93l13.24 89.96 -52.98 0 0 -89.96 39.74 0z"/>
   <path class="fil1" d="M592.31 1200.6l-582.07 0c-2.44,0 -4.74,-1.09 -6.3,-2.96 -1.56,-1.87 -2.2,-4.33 -1.75,-6.73l198.43 -1068.85c0.72,-3.88 4.1,-6.7 8.05,-6.7l185.21 0c3.95,0 7.33,2.82 8.06,6.7l198.43 1068.85c0.44,2.4 -0.2,4.86 -1.76,6.73 -1.55,1.87 -3.86,2.96 -6.3,2.96zm-572.22 -16.38l0 0 562.38 0 -195.4 -1052.48 -171.59 0 -195.39 1052.48z"/>
   <path class="fil0" d="M528.78 1749.04l-455.01 0c-8.53,0 -14.02,-9.06 -10.07,-16.63l104.05 -199.02c1.96,-3.74 5.84,-6.09 10.07,-6.09l246.91 0c4.23,0 8.11,2.35 10.07,6.09l104.05 199.02c3.95,7.57 -1.53,16.63 -10.07,16.63z"/>
   <path class="fil1" d="M528.78 1759.27l-455.01 0c-7.62,0 -14.53,-3.89 -18.47,-10.41 -3.95,-6.52 -4.2,-14.44 -0.67,-21.19l104.05 -199.02c3.74,-7.15 11.07,-11.59 19.14,-11.59l246.91 0c8.07,0 15.4,4.44 19.14,11.59l104.05 199.02c3.53,6.75 3.28,14.68 -0.67,21.19 -3.95,6.52 -10.85,10.41 -18.47,10.41zm-350.96 -221.73l0 0c-0.42,0 -0.8,0.23 -0.99,0.6l-104.06 199.02c-0.08,0.15 -0.29,0.56 0.04,1.1 0.33,0.54 0.79,0.54 0.96,0.54l455.01 0c0.17,0 0.63,0 0.96,-0.54 0.33,-0.54 0.12,-0.95 0.04,-1.11l-104.05 -199.01c-0.19,-0.37 -0.58,-0.6 -1,-0.6l-246.91 0z"/>
   <path class="fil0" d="M10.24 1192.41l582.08 0 -160.71 334.89 -260.67 0 -160.7 -334.89z"/>
   <path class="fil1" d="M431.61 1537.54l-260.67 0c-3.94,0 -7.52,-2.26 -9.23,-5.81l-160.7 -334.89c-1.52,-3.18 -1.31,-6.91 0.56,-9.88 1.88,-2.98 5.15,-4.79 8.67,-4.79l582.07 0c3.52,0 6.79,1.81 8.67,4.79 1.87,2.97 2.09,6.7 0.56,9.88l-160.7 334.89c-1.71,3.55 -5.29,5.81 -9.23,5.81zm-254.23 -20.48l0 0 247.79 0 150.88 -314.42 -549.55 0 150.88 314.42z"/>
   <path class="fil2" d="M268.77 1203.98l0 311 -56.42 0 -123.16 -311 179.58 0z"/>
   <path class="fil3" d="M317.82 1203.98l213.05 0 -124.23 311 -88.82 0 0 -311z"/>
   <path class="fil2" d="M268.77 1540.43l0 196.78 -145.18 0 90.82 -196.78 54.36 0z"/>
   <path class="fil3" d="M317.82 1540.43l0 196.78 159.39 0 -74.25 -196.78 -85.14 0z"/>
   <path class="fil1" d="M592.31 1195.95l-582.07 0c-2.44,0 -4.75,-1.08 -6.3,-2.95 -1.56,-1.88 -2.2,-4.34 -1.75,-6.74l198.43 -1062.62c0.72,-3.88 4.11,-6.69 8.05,-6.69l185.21 0c3.94,0 7.33,2.81 8.05,6.69l198.43 1062.62c0.45,2.4 -0.19,4.86 -1.75,6.74 -1.55,1.87 -3.86,2.95 -6.3,2.95zm-572.21 -16.37l0 0 562.36 0 -195.38 -1046.25 -171.61 0 -195.37 1046.25z"/>
   <path class="fil4" d="M288.29 135.46l-19.52 1041.69 -179.58 0 146.21 -1041.69 52.89 0z"/>
  </g>
 </g>
</svg>
