<?xml version="1.0" encoding="UTF-8"?>
<!DOCTYPE svg PUBLIC "-//W3C//DTD SVG 1.1//EN" "http://www.w3.org/Graphics/SVG/1.1/DTD/svg11.dtd">
<!-- Creator: CorelDRAW 2021 (64-Bit) -->
<svg xmlns="http://www.w3.org/2000/svg" xml:space="preserve" width="1303px" height="229px" version="1.1" style="shape-rendering:geometricPrecision; text-rendering:geometricPrecision; image-rendering:optimizeQuality; fill-rule:evenodd; clip-rule:evenodd"
viewBox="0 0 1303.001 228.643"
 xmlns:xlink="http://www.w3.org/1999/xlink"
 xmlns:xodm="http://www.corel.com/coreldraw/odm/2003">
 <defs>
  <style type="text/css">
   <![CDATA[
    .fil0 {fill:white;fill-rule:nonzero}
   ]]>
  </style>
 </defs>
 <g id="_23Layer_x0020_1">
  <metadata id="CorelCorpID_0Corel-Layer"/>
  <path class="fil0" d="M0.012 0.221c86.453,-0.086 208.662,-0.21 295.115,-0.221l-35.734 60.648c-58.743,0.301 -117.487,-0.055 -176.24,0.129 0.107,8.492 -0.022,16.984 0.053,25.487l170.135 0.022 -21.29 55.962c-54.32,-0.194 -94.32,-0.068 -148.64,-0.036 0.033,8.881 -0.032,17.773 0,26.663l141.981 -0.032 -24.591 59.628c-71.066,0.108 -129.723,-0.032 -200.789,0.065 -0.032,-76.105 0.011,-152.21 0,-228.315l0 0zm266.341 123.259c23.138,0.238 54.028,2.472 76.234,9.668 7.014,2.644 14.168,6.497 17.977,13.262 4.629,7.909 6.129,17.135 8.19,25.951 3.874,14.966 5.805,30.343 9.085,45.428 4.187,-21.775 7.715,-43.777 14.071,-65.067 2.806,-10.164 11.999,-17.016 21.711,-19.984 8.74,-2.514 17.771,-3.808 26.706,-5.417 12.538,-2.201 25.228,-3.571 37.961,-3.808 11.491,-0.076 22.972,0.744 34.453,0.064 11.104,0 22.229,-0.237 33.332,0.227 32.393,-0.593 64.797,-0.011 97.179,-0.227 15.83,0.669 31.669,-0.215 47.499,-0.01 26.988,-0.12 53.985,0.226 80.951,0.107 6.841,-0.42 13.671,0.13 20.512,0.13 15.927,-0.658 31.853,0.086 47.78,0 0.119,34.939 0.184,69.868 0.14,104.797 -28.076,-0.152 -56.153,-0.098 -84.23,-0.022 -0.108,-30.267 0.054,-60.545 -0.065,-90.823 -25.724,18.225 -51.071,36.946 -76.914,55.009 -4.693,3.27 -8.978,7.176 -14.06,9.874 -4.575,0.237 -7.294,-4.371 -10.866,-6.55 -26.901,-19.714 -53.919,-39.299 -81.144,-58.56 -0.248,30.365 -0.076,60.729 -0.129,91.093 -115.566,-0.173 -231.131,-0.075 -346.697,-0.097l40.323 -105.045 0.001 0zm821.303 -103.782c4.77,-11.19 16.51,-18.258 28.379,-19.25 8.589,-0.713 17.222,-0.173 25.832,-0.292 53.64,-0.032 107.279,0.109 160.907,-0.053 0.13,18.828 0.217,37.658 0.205,56.488 -51.006,0.118 -102.001,-0.022 -152.997,0.075 -0.075,9.474 0.119,18.959 0.043,28.444 30.72,-0.076 61.452,-0.022 92.183,-0.055 12.075,0.313 24.537,-1.37 36.212,2.633 8.039,2.299 14.956,7.942 19.067,15.193 5.256,8.428 5.568,18.743 5.439,28.368 -0.044,17.977 0.097,35.965 0.043,53.942 0.356,10.391 -2.299,21.127 -8.697,29.458 -5.957,7.176 -14.794,11.416 -23.858,13.046 -9.29,1.661 -18.765,0.583 -28.141,0.819 -34.206,0.044 -68.4,-0.021 -102.607,0.033 -10.779,-0.097 -21.904,0.982 -32.242,-2.773 -9.473,-2.957 -17.286,-10.467 -20.749,-19.747 -1.835,-5.32 -2.946,-10.942 -2.817,-16.584 0.119,-48.914 -0.01,-97.827 0.097,-146.729 -0.367,-7.823 0.442,-15.819 3.701,-23.016l0 0zm62.218 149.717c28.735,-0.011 57.47,-0.075 86.216,0.011 0.183,-10.024 -0.151,-20.049 0.108,-30.073 -28.8,0.292 -57.6,-0.043 -86.399,0.108 -0.054,9.981 0.097,19.962 0.075,29.954l0 0zm-284.458 -162.536c7.975,-6.183 18.528,-7.187 28.282,-6.809 44.943,0.043 89.874,0.173 134.816,0 10.499,-0.302 21.862,1.284 30.202,8.222 8.665,6.475 12.679,17.481 13.316,27.98 -0.065,45.309 0.108,90.618 0,135.927 -0.313,9.377 0.853,18.905 -1.349,28.131 -2.125,10.402 -9.366,19.638 -19.132,23.901 -8.567,3.658 -18.041,4.694 -27.277,4.305 -57.373,-0.022 -114.757,-0.054 -172.13,0.033 -0.097,-19.769 -0.054,-39.537 -0.151,-59.294 51.125,-0.054 102.239,-0.075 153.365,0 0.173,-8.676 -0.076,-17.351 0.075,-26.016 -11.34,-0.41 -22.67,0.097 -34.001,-0.032 -20.523,0.011 -41.025,-0.162 -61.548,0.011 -13.251,-0.184 -27.3,1.252 -39.601,-4.759 -12.236,-5.319 -18.376,-19.207 -18.289,-31.982 -0.022,-24.117 -0.012,-48.245 -0.033,-72.361 0.658,-10.283 4.651,-21.214 13.455,-27.257l0 0zm53.413 79.623c28.929,0.205 57.869,0.043 86.798,0.01 -0.194,-9.905 -0.065,-19.811 -0.183,-29.716 -28.875,-0.367 -57.751,-0.011 -86.615,-0.238 -0.075,9.981 -0.032,19.963 0,29.944zm-651.818 26.134c14.416,-37.518 28.908,-75.026 43.507,-112.48 44.511,0.033 89.021,0.033 133.521,0.022 9.625,22.854 19.077,45.784 28.552,68.703 5.082,10.812 9.128,22.142 14.933,32.608 1.392,-11.264 -0.248,-22.638 0.518,-33.946 0.032,-22.38 0.032,-44.77 0.097,-67.16 31.023,0.238 62.045,0.054 93.068,0.086 27.591,27.246 55.463,54.212 83.054,81.468 27.321,-26.62 54.815,-53.078 82.061,-79.773 0.971,-1.037 2.223,-1.824 3.734,-1.586 29.987,-0.281 59.973,0.15 89.959,-0.227 0.163,37.604 0.012,75.209 0.109,112.803 -122.795,-0.205 -245.601,-0.011 -368.397,-0.065 -10.876,0.129 -21.84,-0.021 -32.565,-2.05 -10.564,-1.705 -21.236,-3.626 -31.163,-7.737 -8.449,-3.453 -14.287,-11.675 -16.067,-20.469 -5.989,-23.599 -9.236,-47.769 -13.985,-71.617 -4.726,25.002 -8.74,50.165 -15.085,74.832 -2.805,8.751 -10.197,15.678 -18.829,18.613 -23.683,8.286 -52.108,7.18 -77.022,7.975l0 0z"/>
 </g>
</svg>
