<?xml version="1.0" encoding="UTF-8"?>
<!DOCTYPE svg PUBLIC "-//W3C//DTD SVG 1.1//EN" "http://www.w3.org/Graphics/SVG/1.1/DTD/svg11.dtd">
<!-- Creator: CorelDRAW 2021 (64-Bit) -->
<svg xmlns="http://www.w3.org/2000/svg" xml:space="preserve" width="2516px" height="441px" version="1.1" style="shape-rendering:geometricPrecision; text-rendering:geometricPrecision; image-rendering:optimizeQuality; fill-rule:evenodd; clip-rule:evenodd"
viewBox="0 0 20592.697 3613.482"
 xmlns:xlink="http://www.w3.org/1999/xlink"
 xmlns:xodm="http://www.corel.com/coreldraw/odm/2003">
 <defs>
  <style type="text/css">
   <![CDATA[
    .fil0 {fill:#161613;fill-rule:nonzero}
   ]]>
  </style>
 </defs>
 <g id="__x0023_Layer_x0020_1">
  <metadata id="CorelCorpID_0Corel-Layer"/>
  <path class="fil0" d="M0.198 3.495c1366.311,-1.363 3297.711,-3.326 4664.022,-3.495l-564.756 958.476c-928.38,4.776 -1856.759,-0.851 -2785.307,2.049 1.701,134.207 -0.344,268.418 0.85,402.798l2688.821 0.339 -336.481 884.438c-858.46,-3.07 -1490.636,-1.078 -2349.101,-0.566 0.513,140.351 -0.512,280.865 0,421.385l2243.87 -0.508 -388.644 942.364c-1123.126,1.702 -2050.142,-0.512 -3173.274,1.02 -0.512,-1202.767 0.169,-2405.533 0,-3608.3zm4209.263 1947.995c365.678,3.761 853.854,39.064 1204.812,152.798 110.848,41.781 223.911,102.66 284.108,209.583 73.158,125.003 96.864,270.806 129.435,410.131 61.218,236.528 91.745,479.538 143.59,717.946 66.163,-344.138 121.928,-691.852 222.373,-1028.313 44.338,-160.643 189.633,-268.934 343.113,-315.829 138.131,-39.736 280.865,-60.198 422.066,-85.605 198.16,-34.791 398.708,-56.447 599.933,-60.198 181.618,-1.194 363.067,11.766 544.511,1.02 175.479,0 351.302,-3.751 526.776,3.582 511.94,-9.378 1024.054,-0.169 1535.819,-3.582 250.174,10.572 500.513,-3.408 750.687,-0.169 426.503,-1.876 853.176,3.582 1279.337,1.706 108.117,-6.652 216.065,2.045 324.182,2.045 251.707,-10.403 503.413,1.363 755.119,0 1.876,552.188 2.901,1104.201 2.214,1656.215 -443.722,-2.388 -887.449,-1.537 -1331.177,-0.343 -1.706,-478.344 0.856,-956.857 -1.024,-1435.374 -406.549,288.029 -807.128,583.903 -1215.558,869.375 -74.178,51.676 -141.883,113.406 -222.2,156.042 -72.307,3.751 -115.281,-69.068 -171.727,-103.516 -425.141,-311.565 -852.152,-621.081 -1282.407,-925.483 -3.921,479.881 -1.194,959.761 -2.045,1439.637 -1826.406,-2.726 -3652.812,-1.189 -5479.217,-1.532l637.28 -1660.136zm12979.927 -1640.185c75.376,-176.842 260.915,-288.542 448.503,-304.228 135.743,-11.258 272.169,-2.731 408.255,-4.607 847.719,-0.512 1695.439,1.707 2542.984,-0.851 2.049,297.577 3.413,595.158 3.238,892.739 -806.108,1.875 -1612.042,-0.344 -2417.981,1.194 -1.194,149.728 1.876,299.625 0.682,449.523 485.508,-1.194 971.184,-0.343 1456.861,-0.851 190.827,4.945 387.793,-21.661 572.307,41.606 127.047,36.328 236.358,125.515 301.332,240.115 83.048,133.181 87.993,296.213 85.949,448.329 -0.682,284.109 1.537,568.386 0.681,852.49 5.627,164.226 -36.322,333.904 -137.45,465.558 -94.132,113.401 -233.801,180.424 -377.047,206.175 -146.828,26.258 -296.556,9.209 -444.747,12.96 -540.591,0.681 -1081.008,-0.343 -1621.599,0.512 -170.36,-1.537 -346.182,15.517 -509.552,-43.83 -149.728,-46.725 -273.193,-165.414 -327.934,-312.073 -28.989,-84.073 -46.556,-172.922 -44.506,-262.109 1.875,-773.024 -0.174,-1546.053 1.532,-2318.903 -5.796,-123.64 6.99,-250.005 58.492,-363.749zm983.293 2366.141c454.13,-0.169 908.255,-1.194 1362.559,0.174 2.896,-158.425 -2.388,-316.854 1.702,-475.279 -455.15,4.607 -910.305,-0.681 -1365.455,1.707 -0.851,157.743 1.537,315.486 1.194,473.398zm-4495.586 -2568.734c126.028,-97.715 292.806,-113.575 446.967,-107.605 710.269,0.682 1420.369,2.726 2130.638,0 165.927,-4.776 345.5,20.293 477.319,129.943 136.937,102.321 200.379,276.263 210.438,442.195 -1.02,716.065 1.707,1432.135 0,2148.2 -4.945,148.191 13.473,298.775 -21.318,444.578 -33.591,164.395 -148.022,310.372 -302.352,377.729 -135.405,57.814 -285.133,74.182 -431.106,68.043 -906.723,-0.338 -1813.615,-0.851 -2720.338,0.513 -1.537,-312.417 -0.855,-624.834 -2.388,-937.076 807.984,-0.856 1615.799,-1.194 2423.782,0 2.727,-137.112 -1.194,-274.218 1.194,-411.156 -179.23,-6.482 -358.291,1.532 -537.352,-0.512 -324.352,0.169 -648.365,-2.557 -972.717,0.169 -209.413,-2.896 -431.449,19.785 -625.853,-75.203 -193.384,-84.073 -290.422,-303.551 -289.054,-505.457 -0.343,-381.142 -0.174,-762.452 -0.512,-1143.594 10.403,-162.519 73.501,-335.267 212.652,-430.767zm844.138 1258.362c457.199,3.239 914.568,0.682 1371.768,0.17 -3.07,-156.55 -1.025,-313.099 -2.901,-469.648 -456.344,-5.796 -912.693,-0.169 -1368.867,-3.751 -1.194,157.743 -0.513,315.486 0,473.229zm-10301.369 413.032c227.831,-592.943 456.856,-1185.717 687.588,-1777.636 703.444,0.513 1406.892,0.513 2110.171,0.343 152.117,361.187 301.502,723.568 451.23,1085.779 80.322,170.878 144.271,349.934 236.015,515.353 22,-178.036 -3.92,-357.779 8.189,-536.496 0.507,-353.685 0.507,-707.543 1.532,-1061.397 490.284,3.751 980.563,0.851 1470.846,1.363 436.051,430.594 876.54,856.759 1312.59,1287.522 431.788,-420.703 866.306,-838.849 1296.9,-1260.746 15.348,-16.373 35.133,-28.82 59.008,-25.069 473.911,-4.433 947.817,2.388 1421.728,-3.582 2.562,594.306 0.174,1188.613 1.706,1782.75 -1940.662,-3.239 -3881.493,-0.169 -5822.156,-1.025 -171.897,2.05 -345.162,-0.338 -514.671,-32.402 -166.952,-26.94 -335.605,-57.298 -492.497,-122.272 -133.53,-54.571 -225.787,-184.513 -253.925,-323.5 -94.645,-372.953 -145.973,-754.945 -221.011,-1131.823 -74.69,395.121 -138.131,792.804 -238.403,1182.642 -44.337,138.301 -161.151,247.786 -297.581,294.169 -374.282,130.943 -823.515,113.458 -1217.259,126.027z"/>
 </g>
</svg>
