<?xml version="1.0" encoding="UTF-8"?>
<!DOCTYPE svg PUBLIC "-//W3C//DTD SVG 1.1//EN" "http://www.w3.org/Graphics/SVG/1.1/DTD/svg11.dtd">
<!-- Creator: CorelDRAW 2021 (64-Bit) -->
<svg xmlns="http://www.w3.org/2000/svg" xml:space="preserve" width="4637px" height="849px" version="1.1" style="shape-rendering:geometricPrecision; text-rendering:geometricPrecision; image-rendering:optimizeQuality; fill-rule:evenodd; clip-rule:evenodd"
viewBox="0 0 1484.806 271.928"
 xmlns:xlink="http://www.w3.org/1999/xlink"
 xmlns:xodm="http://www.corel.com/coreldraw/odm/2003">
 <defs>
  <style type="text/css">
   <![CDATA[
    .fil0 {fill:#040404;fill-rule:nonzero}
   ]]>
  </style>
 </defs>
 <g id="__x0023_Layer_x0020_1">
  <metadata id="CorelCorpID_0Corel-Layer"/>
  <path class="fil0" d="M1213.591 2.298c2.794,-1.77 6.295,-3.104 9.554,-1.731 5.192,1.818 7.233,7.446 11.091,10.946 2.737,5.029 5.261,10.86 10.782,13.48 4.449,2.244 4.806,7.882 7.998,11.266 1.702,1.808 3.326,3.694 4.854,5.667 1.818,0.019 3.849,-0.658 5.541,0.357 5.618,3.317 10.095,8.829 11.546,15.25 0.696,2.408 1.141,5.135 3.22,6.808 3.791,3.268 6.527,7.765 11.005,10.231 5.221,-1.663 6.42,-9.399 12.281,-10.309 4.873,-1.14 8.828,3.25 11.691,6.644 3.752,5.483 5.473,13.132 12.242,15.888 3.442,1.208 5.522,4.274 7.417,7.204 1.711,2.94 5.483,3.307 7.755,5.609 3.655,4.806 5.493,10.733 9.254,15.462 2.737,-3.607 5.261,-7.398 8.229,-10.821 1.229,-1.682 3.366,-1.924 5.251,-2.34 3.327,1.944 7.311,2.824 10.28,5.347 3.22,4.623 5.076,10.038 6.74,15.376 1.092,4.013 5.047,5.947 7.871,8.606 2.727,2.292 4.642,5.725 8.229,6.856 4.603,1.799 9.902,3.559 12.368,8.239 4.526,6.508 2.012,15.646 7.417,21.719 3.23,3.888 4.168,9.08 7.272,13.055 2.128,2.804 3.984,6.498 7.688,7.417 2.785,-0.145 5.483,-1.596 8.316,-1.141 4.487,1.518 7.717,5.202 10.908,8.519 1.586,1.837 4.158,2.118 6.14,3.384 2.747,4.275 6.876,7.321 10.599,10.686 4.69,2.756 10.124,3.849 15.23,5.657 1.18,0.309 2.002,1.073 2.446,2.291 -4.322,0.697 -8.712,0.6 -13.054,0.629 -20.491,0.31 -40.991,0.281 -61.472,-0.184 3.587,2.544 7.146,5.338 11.285,6.963 5.811,1.383 12.058,0.938 17.618,3.442 -4.438,1.625 -9.099,2.553 -13.779,2.979 -5.812,0.444 -11.604,1.595 -17.436,0.889 -5.541,0.02 -10.956,-1.489 -16.477,-1.266 -9.458,1.228 -19.002,0.493 -28.498,0.551 0.987,0.609 2.06,1.073 3.268,1.17 6.383,0.638 12.862,0.077 19.186,1.354 -0.774,0.299 -2.331,0.899 -3.104,1.199 -13.519,2.756 -27.715,4.487 -41.282,1.151 -7.049,-0.126 -14.089,-0.281 -21.119,-0.242 -4.313,0.01 -8.297,-1.847 -12.542,-2.234 -2.011,-0.184 -3.994,-0.58 -5.88,-1.257 2.515,-1.934 5.716,-1.547 8.703,-1.837 6.383,-1.055 12.978,-1.509 18.915,-4.352 -3.143,-3.433 -7.736,0.155 -11.091,1.412 -14.873,1.383 -29.823,2.253 -44.763,1.818 3.839,2.147 8.539,1.296 12.581,3.007 0.154,0.329 0.464,0.967 0.628,1.286 -3.529,1.325 -7.339,1.325 -11.043,1.393 -4.632,-0.029 -9.467,0.135 -13.79,-1.779 2.882,-0.571 5.841,-0.948 8.607,-2.002 -13.103,-0.851 -26.274,-0.165 -39.386,-0.841 -2.689,-0.416 -5.009,-1.983 -7.63,-2.602 -6.121,-1.421 -12.445,-0.667 -18.653,-1.141 1.392,1.141 2.804,2.263 4.216,3.414 2.04,-0.232 4.516,-1.712 6.295,-0.01 2.292,1.451 4.235,3.781 7.078,4.129 3.221,0.619 6.508,0.339 9.777,0.31 3.23,-0.184 5.434,2.978 8.645,2.92 3.694,0.251 7.436,0.619 10.917,2.002 -1.663,2.059 -4.69,1.586 -7.01,2.108 -7.06,0.435 -14.109,1.885 -21.188,1.073 -25.874,-0.946 -40.518,-6.046 -67.216,-6.256 -12,2.011 -10.37,-8.4 -22.428,-9.203 -5.377,-1.295 -24.829,8.516 -30.177,7.239 -4.623,-0.089 -182.199,-10.34 -182.2,-10.304 -0.051,2.76 -4.07,0.96 -15.526,-1.474 -4.806,0.261 -10.103,1.847 -14.851,1.519 0.78,0.388 14.232,2.704 6.566,3.268 -12.677,0.919 -25.161,-1.837 -37.771,-2.504 -6.363,-0.242 -12.6,-1.819 -18.973,-1.683 4.584,2.746 10.222,2.031 15.173,3.665 4.071,1.296 8.335,1.789 12.465,2.872 1.131,0.222 2.049,0.832 2.736,1.818 -8.945,1.402 -17.967,-0.019 -26.95,0.319 -14.477,-1.189 -29.03,-1.112 -43.467,-2.669 -12.581,-0.783 -25.133,-1.934 -37.636,-3.481 -7.204,-0.948 -14.621,-0.397 -21.651,-2.466 -4.342,-1.267 -8.761,-2.214 -13.113,-3.452 -8.007,-2.253 -16.333,-2.901 -24.426,-4.729 0.541,0.619 1.614,1.876 2.156,2.505 -7.794,0.464 -14.853,-3.414 -22.483,-4.149 -4.409,-0.454 -8.722,-1.489 -12.861,-3.017 1.692,2.863 4.854,4.216 7.533,5.976 -9.177,2.708 -18.75,-0.696 -27.618,-3.191 -2.33,-0.861 -5.782,-0.812 -6.566,-3.713 -3.152,-0.899 -6.237,-2.06 -9.08,-3.704 -3.984,-2.321 -8.635,-3.239 -13.209,-3.133 -2.621,0.223 -4.661,-1.663 -6.924,-2.63 1.286,1.102 2.592,2.156 3.907,3.259 -5.077,2.678 -11.459,1.383 -15.521,-2.514 -5.908,-2.031 -11.903,-4.594 -18.189,-5.077 -6.44,1.005 -12.629,3.21 -18.702,5.512 -4.603,1.721 -9.467,0.019 -14.205,0.483 -3.027,0.348 -5.667,-2.176 -8.693,-1.189 -5.667,1.228 -11.605,3.027 -17.358,1.141 -3.742,-1.277 -7.775,-0.126 -11.537,-1.267 -3.403,-0.928 -6.778,-1.953 -10.124,-3.046 -2.631,-0.783 -5.735,-0.174 -7.91,-2.147 4.796,-0.648 9.805,0.252 14.437,-1.499 -4.98,-0.261 -10.018,-0.822 -14.94,0.242 -2.833,0.6 -5.028,-1.663 -7.069,-3.191 4.681,-2.128 9.912,-2.098 14.853,-3.23 -9.167,-2.292 -4.726,-1.642 -13.99,-0.878 -6.595,1.354 -16.36,-0.796 -22.974,-1.018 -2.892,-0.889 -2.112,1.485 -9.921,-3.144 4.271,-1.126 6.71,-0.788 10.249,-2.731 5.657,-3.046 4.067,-7.246 9.473,-10.766 -1.518,0.155 -3.065,0.29 -4.458,0.976 -5.067,2.302 -11.867,-0.937 -16.799,1.655 -4.371,2.205 -12.167,2.687 -16.789,3.906 -3.539,0.909 -7.934,5.944 -11.531,6.631 3.23,0.822 11.612,1.424 14.823,2.343 4.758,1.392 8.781,4.612 13.644,5.714 9.381,1.944 17.948,6.373 26.883,9.661 3.617,1.412 7.639,-0.358 11.246,1.16 4.207,1.364 7.775,4.129 11.943,5.57 3.085,1.054 6.218,2.002 9.418,2.64 2.476,-1.373 5.261,-1.886 8.027,-2.301 1.779,-0.987 3.587,-2.389 5.744,-2.108 3.858,1.624 6.508,5.695 10.956,5.956 2.611,0.532 5.048,-0.686 7.552,-1.189 2.002,0.725 3.752,2.137 5.879,2.553 11.9,0.647 29.214,-5.626 30.481,-6.876 1.702,-0.473 3.384,-1.082 4.98,-1.875 2.417,-1.422 5.144,0.251 7.62,0.696 4.98,0.889 8.683,4.564 13.044,6.807 1.857,0.291 3.772,-0.038 5.619,0.368 2.456,1.112 4.477,2.949 6.827,4.264 2.263,0.445 4.506,-0.86 6.769,-0.435 2.882,1.17 4.97,3.714 7.881,4.826 1.992,0.299 3.791,-1.074 5.754,-1.277 3.877,1.683 6.885,5.792 11.546,4.951 4.187,2.969 9.776,5.938 14.843,3.404 3.211,1.479 6.711,1.915 10.192,2.292 3.201,0.957 6.528,1.75 9.903,1.45 -3.337,-0.696 -6.673,-1.412 -10.018,-2.021 4.689,-2.427 8.838,-7.562 14.621,-6.576 5.821,0.997 8.838,6.412 13.015,9.941 3.095,0.823 6.228,1.451 9.419,1.838 -0.406,-3.588 3.936,-2.747 6.295,-2.805 3.201,1.528 6.063,3.723 9.371,5.068 3.519,0.425 7.165,0.222 10.511,1.624 4.777,0.803 10.192,0.049 14.282,3.24 -7.948,1.827 -16.11,0.725 -24.155,1.112 -7.785,0.338 -15.53,-0.754 -23.295,-0.668 -4.178,0.523 -8.394,1.093 -12.581,0.3 -5.231,-0.397 -9.951,-3.442 -15.279,-3.065 -4.961,0.454 -9.873,-0.368 -14.824,-0.426 2.36,0.774 4.767,1.431 7.04,2.457 -0.783,1.295 -2.447,1.189 -3.733,1.479 -6.749,0.967 -13.654,1.112 -20.394,0.068 -11.594,-1.499 -23.431,-0.252 -34.86,-2.998 -5.454,-0.223 -10.096,-3.636 -15.501,-3.955 -7.446,-1.064 -14.97,-0.658 -22.445,-1.073 3.452,1.489 7.185,2.165 10.695,3.51 -0.009,0.3 -0.029,0.889 -0.038,1.189 -2.408,0.88 -4.99,0.706 -7.494,0.667 -6.006,-0.203 -12.156,0.184 -17.967,-1.682 -8.858,-2.766 -18.209,-2.872 -27.357,-3.878 -5.512,-1.412 -10.85,-3.626 -16.526,-4.342 -3.366,0.039 -6.74,0.242 -10.086,-0.116 -0.329,0.232 -0.977,0.716 -1.305,0.958 -3.791,0.048 -7.553,-0.416 -11.324,-0.745 3.085,1.828 6.624,2.485 10.086,3.23 3.307,1.286 6.333,3.336 9.834,4.129 1.209,0.493 2.988,0.116 3.81,1.286 -1.479,1.044 -3.007,2.234 -4.845,2.514 -10.443,1.083 -20.674,-1.769 -31.011,-2.611 -8.53,-0.599 -16.817,-2.814 -25.258,-3.964 -9.255,-1.18 -17.571,-6.122 -26.903,-7.002 -6.063,-0.464 -12.136,-0.947 -17.996,-2.649 4.748,3.82 10.792,5.657 15.444,9.621 -15.637,-0.754 -30.693,-5.656 -46.078,-8.229 -4.391,-0.454 -8.829,-0.338 -13.2,-1.005 -8.007,-1.006 -16.555,-1.045 -23.856,-4.816 6.392,-1.547 12.997,-0.938 19.485,-0.551 -3.539,-1.983 -7.543,-2.843 -11.343,-4.12 -7.126,-2.398 -14.795,-1.914 -22.018,-3.829 -10.608,-3.065 -21.913,-1.538 -32.559,-4.39 -3.134,-0.899 -6.557,-0.987 -9.593,0.319 -8.5,3.462 -17.928,3.191 -26.564,6.17 -6.982,0.841 -13.896,-0.977 -20.79,-1.761 2.543,2.428 5.637,4.091 8.567,5.977 -0.155,0.357 -0.454,1.083 -0.609,1.44 -9.747,0.726 -19.63,-1.576 -28.633,-5.212 -4.216,-0.377 -8.519,-1.16 -11.788,-4.071 1.412,-0.164 2.834,-0.319 4.255,-0.435 -8.278,0.193 -15.414,-5.057 -23.595,-5.406 -4.409,-0.522 -9.438,-1.373 -12.3,-5.125 -2.273,0.784 -4.564,2.292 -7.059,1.693 -4.777,-0.774 -8.51,-4.923 -13.567,-4.468 -5.232,-0.232 -9.467,3.191 -13.606,5.87 -3.849,0.435 -7.668,0.967 -11.353,2.234 -4.496,1.527 -9.351,0.357 -13.838,1.895 -1.856,0.899 -3.597,-0.542 -5.193,-1.344 -2.572,-1.383 -3.79,-4.71 -7.059,-4.796 2.689,2.813 5.145,6.159 8.926,7.552 1.818,0.822 3.617,-0.532 5.386,-0.861 2.437,0.484 4.584,1.828 6.856,2.766 2.128,-1.499 5.599,-3.259 7.852,-1.615 -0.058,1.209 0.29,2.272 1.054,3.2 0.116,-0.425 0.348,-1.285 0.465,-1.711 13.676,-5.573 18.725,-8.746 20.577,-8.858 2.408,0.513 4.352,2.205 6.721,2.843 1.828,0.3 3.704,0.077 5.541,0.3 2.35,0.89 3.887,3.104 6.131,4.168 7.543,0.754 15.298,3.085 21.1,8.161 1.731,1.112 3.994,0.368 5.928,0.793 1.402,1.161 2.437,2.727 3.945,3.781 1.025,-0.396 2.031,-0.822 3.027,-1.276 3.017,0.686 5.318,3.288 8.538,3.23 7.311,0.57 14.844,0.889 21.729,3.693l-0.484 1.132c-3.229,0.706 -6.565,0.184 -9.824,0.551 -11.498,1.866 -23.035,3.53 -34.629,4.545 -9.012,-0.145 -18.209,0.909 -27.047,-1.373 2.302,2.089 4.603,4.516 7.755,5.193 4.081,1.083 8.191,2.137 12.078,3.819 -2.03,0.658 -4.158,0.928 -6.285,0.996 -10.328,0.184 -20.665,0.068 -30.973,-0.628 -19.408,0.329 -38.739,-1.741 -58.069,-3.182 -5.164,-0.251 -10.25,-1.721 -15.433,-1.025 -8.713,-0.899 -17.6,-0.058 -26.177,-2.127 -16.613,-3.646 -33.42,-6.179 -50.236,-8.655l0 -1.45c5.966,-3.22 12.871,-2.418 19.34,-3.501 2.359,-0.338 4.129,-2.127 6.295,-2.988 2.099,-0.541 4.545,-0.222 6.276,-1.75 1.828,-2.389 2.369,-5.696 4.835,-7.61 2.127,-1.596 4.439,-2.979 6.885,-4.004 3.481,-1.334 7.543,-0.319 10.279,2.137 0.136,1.499 0.203,3.008 0.203,4.536 3.936,-3.404 4.391,-8.849 7.311,-12.891 2.766,-2.475 6.624,-3.094 9.883,-4.68 4.4,-1.731 8.819,-5.27 13.799,-3.607 3.172,0.406 6.672,3.21 9.66,0.899 3.675,-2.311 7.311,-4.777 10.386,-7.852 2.079,-2.127 2.592,-5.879 5.734,-6.788 1.721,-0.793 4.187,-0.793 4.893,-2.901 1.886,-3.191 1.306,-7.156 3.162,-10.366 1.548,-2.872 2.959,-5.996 5.609,-8.055 1.441,-1.074 2.988,-2.892 4.98,-2.031 1.103,0.832 1.818,2.05 2.689,3.113 -0.204,2.157 -0.494,4.323 -1.055,6.441 0.194,-0.068 0.59,-0.203 0.793,-0.271 1.722,-4.458 3.037,-9.187 6.122,-12.948 3.597,-4.226 3.752,-10.067 4.158,-15.318 1.257,-6.981 1.779,-14.369 5.338,-20.664 2.62,-2.234 5.773,-3.733 8.896,-5.135 0.725,0.203 2.176,0.59 2.901,0.793 2.766,2.756 3.781,6.624 3.549,10.453 -0.416,4.912 3.046,8.684 5.096,12.784 1.422,3.965 0.039,8.858 2.92,12.31 0.668,-3.491 0.474,-7.069 1.18,-10.55 0.329,-2.282 2.456,-3.685 3.143,-5.802 0.474,-2.65 -0.503,-5.725 1.383,-7.959 1.895,-2.233 2.079,-5.183 2.978,-7.842 2.205,-4.854 0.967,-10.444 2.785,-15.414 0.745,-1.625 2.379,-2.563 3.626,-3.742 0.987,0.532 2.002,1.015 2.911,1.682 1.276,3.791 1.537,7.843 1.905,11.807 3.626,5.406 3.114,12.31 3.645,18.519 0.668,6.149 0.977,12.358 1.857,18.479 2.157,-7.243 1.064,-14.921 2.524,-22.27 0.6,-3.201 0.909,-6.431 1.354,-9.641 0.464,-3.008 -1.654,-5.696 -1.267,-8.684 0.6,-5.821 1.538,-11.623 1.586,-17.493 0.745,-4.835 1.209,-9.699 0.977,-14.592 -0.416,-4.661 3.887,-7.862 4.167,-12.349 0.281,-7.136 6.605,-12.329 13.045,-14.167 2.157,1.422 4.033,3.192 5.706,5.155 0.667,2.417 1.692,4.719 2.485,7.107 1.151,3.452 0.464,7.291 2.03,10.647 1.006,2.679 3.173,4.758 4.101,7.455 1.16,6.847 3.964,13.471 3.375,20.53 0.812,5.609 0.599,11.362 2.059,16.874 1.499,5.88 1.064,12.126 3.404,17.822 -0.377,-8.065 -0.619,-16.158 -1.953,-24.117 1.092,-5.773 0.735,-11.643 -0.542,-17.358 2.031,-4.448 2.36,-9.737 5.851,-13.412 1.247,0.706 2.514,1.392 3.819,2.002 1.112,-6.489 2.766,-12.948 2.727,-19.573 -0.126,-3.79 1.141,-7.407 1.47,-11.149 1.837,-7.388 7.069,-13.122 11.662,-18.953 1.257,-1.296 3.037,-3.598 4.961,-1.867 1.122,2.195 0.241,4.874 1.006,7.234 0.299,-5.203 1.595,-10.27 3.549,-15.086 1.692,-3.355 5.076,-5.966 8.915,-6.063 3.762,0.803 6.469,4.313 6.895,8.055 1.296,3.801 1.228,7.823 1.895,11.73 0.842,4.264 5.251,7.059 5.212,11.546 0.223,6.44 1.586,12.871 4.159,18.779 0.628,0.039 1.876,0.116 2.504,0.155 4.042,5.56 2.63,12.89 3.781,19.301 1.383,6.847 2.466,13.867 5.657,20.172 0.455,-3.336 0.764,-6.701 0.841,-10.066 -0.328,-5.638 2.631,-11.015 6.731,-14.709 2.127,0.619 4.119,1.625 5.899,2.959 2.185,-1.866 4.873,-5.656 7.977,-3.133 4.323,4.758 2.137,12.127 4.671,17.668 2.011,3.413 5.086,6.556 4.951,10.811 -0.164,3.645 1.75,6.73 3.085,9.97 1.943,4.931 -0.967,11.836 4.419,15.133 3.82,2.408 5.202,8.297 10.144,8.597l-0.01 -1.132c2.621,-0.87 5.241,-1.711 7.881,-2.524 1.219,-1.566 2.476,-3.104 3.839,-4.544 0.097,-5.667 1.47,-11.179 3.336,-16.497 0.774,-1.761 2.495,-2.795 3.946,-3.946 4.96,2.901 6.063,9.109 7.175,14.283 4.061,-1.131 7.746,-3.259 11.314,-5.454 4.651,-2.785 7.572,-7.823 12.726,-9.883l0.222 -0.745c0.348,0.03 1.054,0.088 1.402,0.116 1.122,-0.696 2.292,-1.295 3.481,-1.876 2.65,-0.715 5.367,-1.102 8.113,-1.276 1.577,-0.367 3.143,-0.783 4.71,-1.218 1.45,-0.261 2.901,-0.503 4.371,-0.716l-0.01 -0.735c0.6,-0.058 1.799,-0.174 2.398,-0.232 5.928,-1.46 12.281,-0.899 18.335,-0.406 0.889,0.677 1.876,1.18 2.959,1.499 0.338,-0.01 1.034,-0.029 1.373,-0.029l0.048 0.841c1.315,0.387 2.611,0.851 3.907,1.325 3.462,2.707 7.04,5.289 10.966,7.301 2.04,0.425 3.974,1.228 5.792,2.253 5.996,0.222 11.991,-0.261 17.996,-0.029l-0.038 0.744c1.817,0.271 3.645,0.687 5.366,1.383 0.523,0.232 1.547,0.687 2.06,0.919 3.752,-3.152 8.403,-5.58 10.859,-9.989 1.432,-2.93 4.855,-3.733 7.562,-5.048 2.021,-9.167 4.217,-18.325 5.358,-27.647 0.048,-5.444 2.272,-10.559 2.291,-15.994 -0.357,-5.957 6.17,-8.326 10.754,-9.95 2.088,-3.221 1.034,-8.172 4.728,-10.251 3.095,-1.972 6.895,-2.814 10.463,-1.702 2.263,0.078 3.249,2.544 3.153,4.507 0.125,9.767 -1.103,19.533 -0.039,29.281 0.948,-3.549 1.528,-7.176 1.702,-10.841 -0.019,-3.461 2.92,-6.111 2.746,-9.582 -0.019,-2.05 0.107,-4.11 0.754,-6.064 -0.599,-3.036 0.368,-6.343 3.356,-7.678 8.306,-1.334 16.855,-2.388 25.19,-0.628 7.978,-0.097 16.034,0.271 23.76,2.437 3.703,4.225 9.854,5.115 13.054,9.921 3.965,4.323 3.288,10.482 4.216,15.84 1.064,6.662 4.207,12.745 5.725,19.311 0.194,-3.549 -1.576,-8.085 1.48,-10.802 1.644,0.029 3.172,1.296 3.781,2.805 2.195,5.202 4.09,10.55 5.27,16.091 0.774,3.674 3.162,6.672 4.661,10.056 2.601,1.074 5.444,1.876 7.542,3.859 2.244,1.992 4.575,4.487 7.853,4.303 3.954,-0.203 5.782,3.849 8.722,5.696 2.795,0.734 5.676,1.092 8.51,1.614 1.198,-2.233 2.659,-4.39 3.287,-6.875 0.493,-3.404 -0.512,-7.04 1.083,-10.25 1.257,-3.733 3.801,-7.059 3.994,-11.101 0.174,-2.186 0.455,-4.526 2.06,-6.18 4.206,-4.757 10.675,-6.401 16.69,-7.446 5.86,-2.185 11.102,-6.556 17.571,-6.875 3.8,0.503 7.262,2.302 10.724,3.839 4.081,-0.271 8.568,-3.491 12.329,-0.571 4.748,3.095 3.887,9.303 5.551,14.032 2.253,2.795 4.69,5.483 6.546,8.596 1.635,2.437 1.499,5.503 2.099,8.288 0.919,6.305 3.993,12.058 4.728,18.411 0.039,3.849 4.381,5.29 5.503,8.665 1.054,2.843 2.91,5.251 4.951,7.465 -0.29,-6.276 3.5,-11.488 4.487,-17.493 0.503,-1.963 2.562,-2.881 3.984,-4.11 2.814,1.818 5.241,4.245 6.546,7.378 1.035,3.433 5.909,3.269 6.905,6.76 1.131,4.844 2.214,9.728 3.587,14.524 0.745,2.872 3.656,4.303 4.971,6.856 1.044,1.808 1.528,4.11 3.549,5.155 6.508,3.916 12.126,9.205 19.059,12.435 1.644,-0.667 3.288,-1.344 4.932,-2.031 3.984,-2.485 8.394,-4.293 12.01,-7.349 3.211,-0.058 6.431,-0.416 9.545,-1.276l0.038 -0.648c1.219,-0.387 2.427,-0.832 3.617,-1.315 6.179,-4.303 12.465,-10.647 20.636,-9.574l-0.116 -0.628c1.131,-0.493 2.282,-0.986 3.452,-1.412 0.57,-0.29 1.721,-0.87 2.301,-1.16l0.126 -0.793c0.464,0.096 1.393,0.28 1.847,0.377l0.048 -1.286c0.387,0.048 1.171,0.125 1.557,0.174 2.273,-2.292 4.758,-4.603 8.055,-5.222l0.029 -0.542c2.708,-0.57 5.599,-1.721 8.326,-0.57 1.112,0.396 2.283,0.793 3.433,1.199 1.257,0.677 2.534,1.373 3.81,2.069 2.05,0.822 4.129,1.644 6.295,2.167 0.59,0.241 1.78,0.705 2.369,0.947l-0.125 1.093c0.493,-0.126 1.47,-0.377 1.963,-0.503l-0.106 1.151c4.98,0.938 10.056,1.315 14.959,2.659 1.789,0.425 3.597,0.899 5.377,1.421l0.096 0.542c1.083,0.348 2.205,0.629 3.346,0.822 2.698,1.044 5.425,2.069 7.92,3.558 7.446,-3.316 15.037,-7.677 19.456,-14.766 2.185,-3.278 4.98,-6.092 7.929,-8.674 2.766,-2.524 6.798,-2.572 9.854,-4.603 4.052,-2.64 7.04,-6.517 10.666,-9.66 2.544,-2.157 3.472,-5.522 5.609,-8.007 1.934,-1.905 4.574,-3.046 6.14,-5.347 3.288,-3.762 2.766,-9.467 6.499,-12.948 4.69,-4.304 1.992,-11.663 5.831,-16.411 1.731,-2.359 3.268,-5.289 6.266,-6.188 3.51,-1.557 7.107,0.512 10.221,2.059 2.785,1.586 6.102,1.49 9.081,2.563 3.722,1.325 7.446,2.678 10.946,4.535 1.944,1.209 4.284,0.329 6.421,0.261 2.282,0.716 4.661,1.093 6.933,1.915 3.549,2.05 5.947,5.986 10.164,6.894 3.316,0.552 4.457,4.091 7.03,5.774 2.717,1.508 5.715,2.436 8.674,3.374 4.864,-3.742 9.37,-8.18 11.584,-14.04 1.519,-5.087 6.595,-7.649 9.351,-11.933 2.679,-3.423 2.486,-8.51 6.305,-11.111 4.681,-3.559 4.081,-10.202 7.572,-14.583 2.205,-2.581 3.858,-6.653 7.774,-6.788 2.699,-0.735 5.358,0.58 7.186,2.534 7.087,7.227 12.328,4.743 16.912,-3.578 1.161,-1.673 1.992,-4.004 4.168,-4.594 4.651,-1.189 7.678,-5.173 10.792,-8.519 2.775,-3.036 2.195,-7.591 4.661,-10.792 1.334,-1.895 2.34,-4.071 4.061,-5.657 2.979,-2.35 7.176,-1.141 10.27,-3.21zm-619.386 249.207c3.713,-1.847 7.823,-4.207 12.126,-3.018 3.51,1.112 6.943,2.853 9.39,5.696 2.736,-0.357 5.241,1.18 7.978,0.909 2.427,-0.135 4.486,1.451 6.865,1.654 4.39,0.309 8.897,0.406 13.103,1.837 0.097,0.329 0.281,0.996 0.368,1.325 -3.51,0.426 -7.03,0.957 -10.57,0.783 -5.26,-0.338 -10.337,1.615 -15.607,1.306 -12.629,1.353 -25.519,0.618 -37.829,-2.611 2.059,-2.495 5.192,-3.491 8.006,-4.845 2.36,-0.319 4.313,-1.634 6.17,-3.036zm-0.764 3.259c0.861,-0.107 2.582,-0.32 3.442,-0.426 0.793,2.002 2.002,-0.977 2.824,-1.199 2.002,1.296 4.777,2.998 6.905,0.918 -2.186,-0.309 -4.642,0.31 -6.537,-1.024 0.599,-0.842 1.798,-2.505 2.398,-3.337 -3.259,0.996 -6.75,2.447 -9.032,5.068zm-39.125 -9.129c2.959,-1.557 6.199,-2.737 9.564,-2.998 3.955,1.654 6.198,5.715 9.96,7.726 3.752,2.95 8.751,2.109 13.103,3.385 -3.888,3.723 -9.583,2.708 -14.438,2.176 1.615,0.155 2.35,0.957 2.215,2.408 -4.961,0.87 -9.97,-0.339 -14.94,0.358 -17.919,-0.677 -35.847,-2.157 -53.592,-4.845 -0.319,-0.29 -0.948,-0.89 -1.267,-1.18 3.385,-0.928 6.934,-0.571 10.357,-1.344 3.298,-0.745 6.885,0.387 9.951,-1.451 3.355,-0.899 4.767,-5.492 8.644,-4.844 2.621,0.145 4.062,3.181 6.605,3.452 2.244,-0.629 3.82,-2.572 5.899,-3.559 1.344,-0.261 2.234,1.074 3.355,1.586 2.447,1.402 5.367,1.857 8.162,1.808 1.218,-0.947 2.485,-1.846 3.723,-2.756 -2.427,0.271 -4.883,0.271 -7.301,0.078zm-10.985 4.661c1.76,-0.59 3.916,-0.6 5.193,-2.128 -1.818,0.097 -4.671,-0.203 -5.193,2.128zm751.43 -2.621c1.577,-0.116 3.182,-0.309 4.767,-0.59 0.581,0.174 1.731,0.532 2.302,0.706 -0.88,-0.725 -1.779,-1.402 -2.698,-2.04 1.344,-2.717 4.748,-2.485 7.282,-3.21 -0.426,-0.358 -1.277,-1.064 -1.702,-1.422 1.721,-1.673 3.607,-3.182 5.618,-4.516 2.891,-0.184 5.792,0.329 8.684,0.619 3.51,1.431 5.396,4.893 7.649,7.726 1.469,2.108 4.216,1.228 6.391,1.325 4.014,3.53 10.164,1.141 14.196,4.187 -5.55,1.431 -11.14,2.795 -16.826,3.559 -4.409,0.57 -8.848,-0.097 -13.248,0.116 -8.074,1.518 -16.313,1.441 -24.475,1.141 -6.73,-1.257 -14.157,0.648 -20.442,-2.466 1.992,-1.257 4.274,-1.857 6.459,-2.727 2.495,-1.731 13.374,-0.918 16.043,-2.408zm-1005.23 -32.791c4.167,-0.841 7.968,-4.69 12.377,-3.133 2.93,0.706 5.744,1.876 8.123,3.752 2.785,2.215 6.624,1.489 9.767,2.698 2.978,1.74 5.464,4.216 8.026,6.508 2.021,2.727 1.702,6.392 3.143,9.37 1.837,2.031 4.1,3.723 5.406,6.208 1.024,2.311 4.158,3.907 6.382,2.205 3.288,-1.363 5.86,-3.752 8.529,-6.005 6.44,-2.35 12.967,-6.053 20.075,-4.932 2.756,0.02 4.748,2.099 6.846,3.597 3.037,2.128 4.622,5.706 7.775,7.717 2.059,2.195 5.502,-0.019 7.755,1.857 2.872,2.592 3.887,6.518 5.976,9.679 1.335,-0.908 2.775,-1.943 4.516,-1.566 2.631,1.083 4.632,3.191 6.798,4.98 1.866,-0.145 3.743,-0.299 5.618,-0.435 0.252,-0.464 0.755,-1.392 1.006,-1.856 3.394,-0.571 5.406,2.088 7.872,3.703 6.034,0.474 12.348,-0.368 18.044,2.33 -1.141,2.012 -3.636,1.712 -5.599,2.07 -5.483,0.377 -10.946,0.957 -16.352,1.973 -10.386,2.736 -21.216,3.288 -31.911,3.055 -4.632,-0.009 -8.945,2.253 -13.587,2.089 -4.119,-0.097 -8.393,-0.222 -12.252,-1.828 0.107,-1.373 1.731,-1.682 2.601,-2.456 -6.411,-0.957 -12.89,-1.257 -19.33,-1.876 3.249,1.867 7.349,1.441 10.463,3.588 0.068,0.445 0.213,1.325 0.281,1.769 -8.413,-0.203 -16.778,0.697 -25.172,1.035 -8.915,1.035 -18.624,1.567 -26.757,-2.93 1.054,-0.832 2.118,-1.624 3.153,-2.456 -4.419,-0.996 -9.912,0.957 -13.451,-2.563 -3.859,-0.793 -7.804,-1.092 -11.73,-1.402 2.418,3.288 6.905,4.226 9.042,7.843 -3.085,2.156 -7.06,1.924 -10.618,2.456 -12.629,-0.455 -25.191,-2.669 -37.288,-6.295 -1.769,-0.61 -3.462,-1.441 -5.106,-2.311 4.768,-2.012 10.212,-2.128 15.356,-2.06 1.712,0.145 3.211,-0.793 4.69,-1.48 -4.757,-0.831 -9.67,0.126 -14.359,-1.083 -7.147,-1.837 -14.689,-0.619 -21.797,-2.766 0.445,-0.638 0.899,-1.257 1.373,-1.856 1.925,0.106 3.868,0.155 5.802,0.164 -11.672,-0.415 -23.188,-2.553 -34.793,-3.81 -2.901,-0.28 -5.763,-0.87 -8.586,-1.556 1.005,-1.751 3.161,-1.548 4.854,-1.935 2.272,-0.319 4.574,-1.005 6.856,-0.357 5.502,1.353 10.666,-2.06 16.178,-1.335 2.282,-1.924 4.951,-3.694 8.007,-2.282 0.038,0.754 0.116,2.253 0.154,3.007 3.308,-0.996 7.147,-0.986 9.767,-3.539 4.845,-4.728 10.076,-9.477 16.623,-11.633 2.089,-1.286 3.568,-3.636 6.073,-4.197 2.649,-0.416 5.676,0.145 7.833,-1.827 19.686,-16.482 -1.579,-0.982 18.17,-5.967 0.396,0.222 1.179,0.667 1.566,0.89 1.75,-1.335 3.646,-2.456 5.725,-3.182 0.029,-0.406 0.067,-1.228 0.087,-1.634zm355.345 -4.506c-0.029,3.143 3.075,-1.315 0,0zm-500.116 19.185c1.199,1.035 2.621,1.77 4.139,2.224 4.99,1.248 10.27,3.395 15.327,1.161 -0.029,-0.222 -0.087,-0.667 -0.116,-0.89 -3.897,0.668 -7.533,-1.16 -11.381,-1.238 -2.708,-0.029 -5.29,-0.967 -7.969,-1.257z"/>
 </g>
</svg>
