<?xml version="1.0" encoding="UTF-8"?>
<!DOCTYPE svg PUBLIC "-//W3C//DTD SVG 1.1//EN" "http://www.w3.org/Graphics/SVG/1.1/DTD/svg11.dtd">
<!-- Creator: CorelDRAW 2021 (64-Bit) -->
<svg xmlns="http://www.w3.org/2000/svg" xml:space="preserve" width="915px" height="468px" version="1.1" style="shape-rendering:geometricPrecision; text-rendering:geometricPrecision; image-rendering:optimizeQuality; fill-rule:evenodd; clip-rule:evenodd"
viewBox="0 0 878.895 449.687"
 xmlns:xlink="http://www.w3.org/1999/xlink"
 xmlns:xodm="http://www.corel.com/coreldraw/odm/2003">
 <defs>
  <style type="text/css">
   <![CDATA[
    .fil2 {fill:white;fill-rule:nonzero}
    .fil0 {fill:black;fill-rule:nonzero;fill-opacity:0.498039}
    .fil1 {fill:black;fill-rule:nonzero;fill-opacity:0.741176}
   ]]>
  </style>
 </defs>
 <g id="Capa_x0020_1">
  <metadata id="CorelCorpID_0Corel-Layer"/>
  <path class="fil0" d="M127.275 107.596c-3.204,-1.068 -6.422,-1.602 -9.638,-1.602l-85.114 0c-5.353,0 -10.173,2.148 -14.459,6.422 -4.285,3.217 -6.422,7.502 -6.422,12.856 -1.067,5.354 0,10.708 3.218,16.061l89.933 123.657 -101.175 139.719c-3.217,4.286 -4.286,9.105 -3.217,14.459 1.068,5.353 3.751,10.173 8.037,14.458 3.204,3.205 8.024,4.82 14.446,4.82l81.909 0c4.285,0 8.036,-1.08 11.241,-3.217 2.136,-1.068 4.285,-2.683 6.422,-4.82l51.4 -70.666 51.389 70.666c2.136,2.137 4.819,3.752 8.024,4.82 2.149,2.137 5.354,3.217 9.639,3.217l83.511 0c6.422,0 11.242,-1.615 14.459,-4.82 4.285,-4.285 6.956,-9.105 8.024,-14.458 1.069,-5.354 0,-10.173 -3.205,-14.459l-102.789 -139.719 88.331 -123.657c3.217,-5.353 4.819,-10.707 4.819,-16.061 0,-5.354 -2.136,-9.639 -6.422,-12.856 -5.354,-4.285 -10.707,-6.422 -16.061,-6.422l-81.908 0c-3.205,0 -6.422,0.534 -9.639,1.602 -3.205,2.149 -5.888,4.82 -8.025,8.037l-38.544 54.605 -40.147 -54.605c-2.149,-3.217 -4.819,-5.888 -8.037,-8.037m-4.819 9.64c1.068,1.068 2.149,2.682 3.217,4.819l49.786 67.449 46.569 -67.449c1.068,-2.137 2.683,-3.751 4.819,-4.819 1.068,0 2.683,0 4.82,0l81.908 0c3.217,0 5.888,1.068 8.024,3.216 2.149,1.069 3.752,3.206 4.82,6.422 0,3.218 -1.068,5.888 -3.205,8.025l-93.15 130.091 105.994 146.154c2.137,2.136 2.683,4.273 1.603,6.421 0,3.205 -1.069,5.888 -3.205,8.025 -2.149,1.068 -4.82,1.614 -8.037,1.614l-83.511 0c-1.068,0 -2.671,-0.546 -4.819,-1.614 -1.068,0 -2.671,-1.069 -4.82,-3.205l-59.413 -81.908 -59.425 81.908c-1.068,2.136 -2.683,3.205 -4.819,3.205 -1.069,1.068 -2.683,1.614 -4.819,1.614l-81.909 0c-3.205,0 -5.888,-0.546 -8.024,-1.614 -2.149,-2.137 -3.218,-4.82 -3.218,-8.025 0,-2.148 0.535,-4.285 1.603,-6.421l106.006 -146.154 -96.367 -130.091c-1.068,-2.137 -1.068,-4.807 0,-8.025 0,-3.216 1.068,-5.353 3.217,-6.422 1.069,-2.148 3.205,-3.216 6.422,-3.216l85.114 0c1.068,0 2.682,0 4.819,0m346.899 -14.447c-43.898,0 -81.362,16.061 -112.416,48.171 -29.986,33.191 -44.967,74.952 -44.967,125.272 0,49.252 15.528,90.479 46.569,123.67 32.123,33.19 69.599,49.785 112.428,49.785 20.335,0 38.544,-3.216 54.606,-9.638 6.422,-3.218 11.776,-6.423 16.049,-9.64 1.068,2.137 2.149,3.752 3.217,4.82 4.285,4.285 9.639,6.422 16.061,6.422l72.269 0c6.422,0 11.775,-2.137 16.061,-6.422 3.217,-3.217 4.819,-8.036 4.819,-14.459l0 -289.076c0,-6.422 -1.602,-11.776 -4.819,-16.061 -4.286,-4.285 -9.639,-6.422 -16.061,-6.422l-72.269 0c-6.422,0 -11.776,2.137 -16.061,6.422 -1.068,1.068 -2.137,3.217 -3.217,6.422 -4.273,-3.217 -9.093,-5.888 -14.447,-8.025 -18.198,-7.502 -37.476,-11.241 -57.822,-11.241m-104.391 56.208c28.905,-31.054 63.71,-46.581 104.391,-46.581 19.278,0 36.941,3.751 53.003,11.242 9.639,4.285 18.732,9.639 27.302,16.061l0 -8.025c0,-3.217 1.068,-5.888 3.205,-8.036 2.149,-2.137 4.82,-3.206 8.037,-3.206l72.269 0c3.217,0 5.887,1.069 8.036,3.206 2.137,2.148 3.206,4.819 3.206,8.036l0 289.076c0,3.217 -1.069,5.354 -3.206,6.434 -2.149,2.137 -4.819,3.205 -8.036,3.205l-72.269 0c-3.217,0 -5.888,-1.068 -8.037,-3.205 -2.137,-1.08 -3.205,-3.217 -3.205,-6.434l0 -8.024c-9.639,6.422 -18.744,11.775 -27.302,16.061 -16.062,6.422 -33.191,9.639 -51.389,9.639 -39.613,0 -74.417,-15.527 -104.391,-46.581 -29.986,-31.054 -44.979,-69.598 -44.979,-115.633 0,-47.103 14.459,-86.193 43.365,-117.235m118.849 43.363c-19.278,0 -35.327,6.423 -48.183,19.267 -12.844,13.924 -19.266,31.588 -19.266,53.003 0,22.483 6.422,41.215 19.266,56.208 12.844,12.844 28.905,19.278 48.183,19.278 20.347,0 36.942,-6.434 49.786,-19.278 12.844,-14.993 19.266,-33.725 19.266,-56.208 0,-21.415 -6.422,-39.079 -19.266,-53.003 -12.844,-12.844 -29.439,-19.267 -49.786,-19.267m-38.544 27.303c9.639,-11.775 22.483,-17.675 38.544,-17.675 17.13,0 31.054,5.888 41.762,17.675 10.707,11.776 16.049,26.757 16.049,44.967 0,19.266 -5.354,35.327 -16.049,48.183 -10.708,11.776 -24.632,17.664 -41.762,17.664 -16.061,0 -28.905,-6.422 -38.544,-19.279 -11.776,-11.775 -17.664,-27.302 -17.664,-46.568 0,-18.198 5.888,-33.191 17.664,-44.967m264.99 -221.638c-3.216,4.285 -4.819,9.104 -4.819,14.458l0 83.511 -16.061 0c-5.354,0 -10.708,2.148 -16.061,6.422 -3.205,4.285 -4.82,9.105 -4.82,14.458l0 62.63c0,6.422 1.615,11.776 4.82,16.062 5.353,4.285 10.707,6.422 16.061,6.422l16.061 0 0 109.21c0,31.055 3.217,54.072 9.639,69.065 7.49,18.198 18.732,32.122 33.725,41.749 14.993,8.571 33.19,12.856 54.605,12.856 4.286,0 8.571,0 12.844,0 11.776,-1.068 26.769,-4.285 44.966,-9.639 1.081,-1.068 2.149,-1.603 3.218,-1.603 4.285,-1.068 8.036,-3.751 11.241,-8.036 2.137,-3.205 3.217,-7.491 3.217,-12.844l0 -56.208c0,-5.354 -1.614,-10.173 -4.819,-14.459 -3.217,-4.285 -6.956,-6.422 -11.242,-6.422l-1.615 0c-4.273,-2.136 -8.558,-2.149 -12.844,0 -8.558,4.286 -15.526,6.422 -20.88,6.422 -1.068,0 -2.671,0 -4.82,0 -1.068,-3.217 -1.602,-8.571 -1.602,-16.061l0 -114.03 22.483 0c5.353,0 10.173,-2.137 14.459,-6.422 1.068,-1.069 2.137,-2.137 3.204,-3.206 2.149,-4.285 3.218,-8.57 3.218,-12.856l0 -62.63c0,-4.285 -1.069,-7.489 -3.218,-9.638 -1.067,-2.137 -2.136,-3.74 -3.204,-4.82 -4.286,-4.285 -9.106,-6.422 -14.459,-6.422l-22.483 0 0 -83.511c0,-5.354 -1.603,-10.173 -4.82,-14.458l0 -1.603c-5.354,-4.285 -10.707,-6.422 -16.061,-6.422l-73.871 0c-5.354,0 -10.174,2.137 -14.459,6.422l-1.603 1.603m6.422 14.458c0,-3.217 1.069,-5.887 3.218,-8.024 2.136,-2.149 4.285,-3.218 6.422,-3.218l73.871 0c3.217,0 5.354,1.069 6.434,3.218 3.205,2.137 4.808,4.807 4.808,8.024l0 94.753 32.122 0c3.217,0 5.353,1.068 6.422,3.216 2.149,2.137 3.217,4.286 3.217,6.422l0 62.63c0,3.218 -1.068,5.888 -3.217,8.037 -1.069,2.137 -3.205,3.205 -6.422,3.205l-32.122 0 0 125.272c0,10.707 1.08,18.744 3.217,24.098l1.602 0c3.217,2.137 6.969,3.205 11.242,3.205 7.502,0 16.061,-2.671 25.7,-8.025 2.137,0 4.285,0 6.422,0l1.602 0c2.149,1.069 3.752,2.671 4.82,4.82 1.068,1.068 1.615,3.205 1.615,6.422l0 56.208c0,2.137 -0.534,4.819 -1.615,8.024 -2.137,1.068 -3.739,2.149 -4.82,3.217 -17.129,5.354 -32.109,9.105 -44.966,11.242 -4.285,0 -8.558,0 -12.844,0 -19.278,0 -35.873,-4.286 -49.786,-12.844 -12.844,-8.571 -22.483,-20.347 -28.905,-35.34 -5.354,-14.992 -8.037,-36.929 -8.037,-65.847l0 -120.452 -27.302 0c-2.137,0 -4.286,-1.068 -6.422,-3.205 -3.217,-2.149 -4.82,-4.819 -4.82,-8.037l0 -62.63c0,-2.136 1.615,-4.285 4.82,-6.422 2.136,-2.148 4.285,-3.216 6.422,-3.216l27.302 0 0 -94.753z"/>
  <path class="fil1" d="M125.673 122.055c-1.068,-2.137 -2.149,-3.751 -3.217,-4.819 -2.137,0 -3.739,0 -4.819,0l-85.114 0c-3.217,0 -5.353,1.068 -6.422,3.216 -2.149,1.069 -3.217,3.206 -3.217,6.422 -1.068,3.218 -1.068,5.888 0,8.025l96.367 130.091 -106.006 146.154c-1.068,2.136 -1.603,4.273 -1.603,6.421 0,3.205 1.069,5.888 3.218,8.025 2.136,1.068 4.819,1.614 8.024,1.614l81.909 0c2.136,0 3.75,-0.546 4.819,-1.614 2.136,0 3.751,-1.069 4.819,-3.205l59.425 -81.908 59.413 81.908c2.149,2.136 3.752,3.205 4.82,3.205 2.148,1.068 3.751,1.614 4.819,1.614l83.511 0c3.217,0 5.888,-0.546 8.037,-1.614 2.136,-2.137 3.205,-4.82 3.205,-8.025 1.068,-2.148 0.534,-4.285 -1.603,-6.421l-105.994 -146.154 93.15 -130.091c2.137,-2.137 3.205,-4.807 3.205,-8.025 -1.068,-3.216 -2.671,-5.353 -4.82,-6.422 -2.136,-2.148 -4.807,-3.216 -8.024,-3.216l-81.908 0c-2.137,0 -3.752,0 -4.82,0 -2.136,1.068 -3.739,2.682 -4.819,4.819l-46.569 67.449 -49.786 -67.449m6.422 142.935l-99.572 -138.116 85.114 0 57.822 80.306 56.208 -80.306 81.908 0 -97.969 138.116 110.813 150.96 -83.511 0 -69.052 -94.752 -69.063 94.752 -81.909 0 109.211 -150.96m337.26 -152.574c-40.681,0 -75.475,15.527 -104.391,46.581 -28.906,31.054 -43.365,70.132 -43.365,117.235 0,46.035 14.993,84.579 44.979,115.633 29.974,31.054 64.766,46.581 104.391,46.581 18.198,0 35.327,-3.217 51.389,-9.639 8.57,-4.286 17.663,-9.639 27.302,-16.061l0 8.024c0,3.217 1.068,5.354 3.205,6.434 2.149,2.137 4.82,3.205 8.037,3.205l72.269 0c3.217,0 5.887,-1.068 8.036,-3.205 2.137,-1.08 3.206,-3.217 3.206,-6.434l0 -289.076c0,-3.217 -1.069,-5.888 -3.206,-8.036 -2.149,-2.137 -4.819,-3.206 -8.036,-3.206l-72.269 0c-3.217,0 -5.888,1.069 -8.037,3.206 -2.137,2.148 -3.205,4.819 -3.205,8.036l0 8.025c-8.57,-6.422 -17.663,-11.776 -27.302,-16.061 -16.062,-7.491 -33.725,-11.242 -53.003,-11.242m-96.355 54.605c25.7,-28.905 57.81,-43.363 96.355,-43.363 17.129,0 33.19,3.216 48.183,9.639 14.993,6.422 29.439,16.595 43.364,30.519l0 -32.122 72.269 0 0 289.076 -72.269 0 0 -30.507c-13.925,12.844 -28.371,22.483 -43.364,28.905 -13.912,5.353 -29.44,8.036 -46.569,8.036 -36.407,0 -68.53,-14.458 -96.367,-43.363 -27.836,-28.906 -41.749,-64.779 -41.749,-107.609 0,-44.966 13.379,-81.374 40.147,-109.211m110.813 24.098c-22.483,0 -41.227,8.025 -56.208,24.086 -13.924,14.993 -20.88,34.793 -20.88,59.425 0,25.7 7.49,46.568 22.483,62.63 13.925,16.061 32.122,24.097 54.605,24.097 23.552,0 42.296,-8.036 56.208,-24.097 16.062,-16.062 24.098,-36.942 24.098,-62.63 0,-24.632 -8.036,-44.967 -24.098,-61.028 -13.912,-14.992 -32.656,-22.483 -56.208,-22.483m-48.183 30.508c12.844,-12.844 28.905,-19.267 48.183,-19.267 20.347,0 36.942,6.423 49.786,19.267 12.844,13.924 19.266,31.588 19.266,53.003 0,22.483 -6.422,41.215 -19.266,56.208 -12.844,12.844 -29.439,19.278 -49.786,19.278 -19.278,0 -35.327,-6.434 -48.183,-19.278 -12.844,-14.993 -19.266,-33.725 -19.266,-56.208 0,-21.415 6.422,-39.079 19.266,-53.003m284.269 -207.168c-2.149,2.137 -3.218,4.807 -3.218,8.024l0 94.753 -27.302 0c-2.137,0 -4.286,1.068 -6.422,3.216 -3.217,2.137 -4.82,4.286 -4.82,6.422l0 62.63c0,3.218 1.615,5.888 4.82,8.037 2.136,2.137 4.285,3.205 6.422,3.205l27.302 0 0 120.452c0,28.906 2.683,50.855 8.037,65.847 6.422,14.993 16.061,26.769 28.905,35.34 13.913,8.558 30.508,12.844 49.786,12.844 4.286,0 8.571,0 12.844,0 12.857,-2.137 27.837,-5.888 44.966,-11.242 1.081,-1.068 2.683,-2.136 4.82,-3.217 1.068,-3.205 1.615,-5.887 1.615,-8.024l0 -56.208c0,-3.217 -0.534,-5.354 -1.615,-6.422 -1.068,-2.149 -2.671,-3.751 -4.82,-4.82l-1.602 0c-2.137,0 -4.285,0 -6.422,0 -9.639,5.354 -18.198,8.025 -25.7,8.025 -4.286,0 -8.025,-1.068 -11.242,-3.205l-1.602 0c-2.137,-5.354 -3.217,-13.391 -3.217,-24.098l0 -125.272 32.122 0c3.217,0 5.353,-1.068 6.422,-3.205 2.149,-2.149 3.217,-4.819 3.217,-8.037l0 -62.63c0,-2.136 -1.068,-4.285 -3.217,-6.422 -1.069,-2.148 -3.205,-3.216 -6.422,-3.216l-32.122 0 0 -94.753c0,-3.217 -1.603,-5.887 -4.808,-8.024 -1.068,-2.149 -3.217,-3.218 -6.434,-3.218l-73.871 0c-2.137,0 -4.286,1.069 -6.422,3.218m6.422 8.024l73.871 0 0 104.391 43.364 0 0 62.63 -43.364 0 0 136.514c0,14.993 2.149,25.166 6.434,30.52 2.137,3.205 5.354,5.888 9.627,8.025 3.217,0 6.969,0 11.242,0 8.57,0 18.744,-2.672 30.52,-8.025l0 56.208c-16.061,5.353 -29.986,9.105 -41.762,11.241 -4.285,0 -8.558,0 -12.844,0 -17.129,0 -31.588,-3.751 -43.364,-11.241 -10.707,-7.49 -18.731,-17.664 -24.085,-30.52 -6.423,-13.912 -9.639,-34.259 -9.639,-61.028l0 -131.694 -36.942 0 0 -62.63 36.942 0 0 -104.391z"/>
  <g>
   <path class="fil2" d="M32.523 126.874l99.572 138.116 -109.211 150.96 81.909 0 69.063 -94.752 69.052 94.752 83.511 0 -110.813 -150.96 97.969 -138.116 -81.908 0 -56.208 80.306 -57.822 -80.306 -85.114 0 0 0zm436.832 -3.216c-38.545,0 -70.667,14.458 -96.355,43.363 -26.768,27.837 -40.147,64.245 -40.147,109.211 0,42.83 13.913,78.691 41.749,107.609 27.837,28.905 59.96,43.363 96.367,43.363 17.129,0 32.657,-2.683 46.569,-8.036 14.993,-6.422 29.439,-16.061 43.364,-28.905l0 30.507 72.269 0 0 -289.076 -72.269 0 0 32.122c-13.925,-13.924 -28.371,-24.097 -43.364,-30.519 -14.993,-6.423 -31.054,-9.639 -48.183,-9.639l0 0zm-41.75 91.547c14.993,-16.061 33.725,-24.086 56.208,-24.086 23.552,0 42.296,7.491 56.208,22.483 16.062,16.061 24.098,36.396 24.098,61.028 0,25.7 -8.036,46.568 -24.098,62.63 -13.912,16.061 -32.656,24.097 -56.208,24.097 -22.483,0 -40.68,-8.036 -54.605,-24.097 -14.993,-16.062 -22.483,-36.942 -22.483,-62.63 0,-24.632 6.956,-44.432 20.88,-59.425l0 0zm372.587 -192.722l-73.871 0 0 104.391 -36.942 0 0 62.63 36.942 0 0 131.694c0,26.769 3.216,47.116 9.639,61.028 5.354,12.856 13.378,23.03 24.085,30.52 11.776,7.49 26.235,11.241 43.364,11.241 4.286,0 8.571,0 12.844,0 11.776,-2.136 25.701,-5.888 41.762,-11.241l0 -56.208c-11.776,5.353 -21.95,8.025 -30.52,8.025 -4.286,0 -8.025,0 -11.242,0 -4.285,-2.137 -7.49,-4.82 -9.627,-8.025 -4.285,-5.354 -6.434,-15.527 -6.434,-30.52l0 -136.514 43.364 0 0 -62.63 -43.364 0 0 -104.391z"/>
  </g>
 </g>
</svg>
