<?xml version="1.0" encoding="UTF-8"?>
<!DOCTYPE svg PUBLIC "-//W3C//DTD SVG 1.1//EN" "http://www.w3.org/Graphics/SVG/1.1/DTD/svg11.dtd">
<!-- Creator: CorelDRAW 2021 (64-Bit) -->
<svg xmlns="http://www.w3.org/2000/svg" xml:space="preserve" width="2348px" height="1138px" version="1.1" style="shape-rendering:geometricPrecision; text-rendering:geometricPrecision; image-rendering:optimizeQuality; fill-rule:evenodd; clip-rule:evenodd"
viewBox="0 0 2354.336 1140.959"
 xmlns:xlink="http://www.w3.org/1999/xlink"
 xmlns:xodm="http://www.corel.com/coreldraw/odm/2003">
 <defs>
  <style type="text/css">
   <![CDATA[
    .fil0 {fill:white;fill-rule:nonzero}
   ]]>
  </style>
 </defs>
 <g id="Capa_x0020_1">
  <metadata id="CorelCorpID_0Corel-Layer"/>
  <g>
   <path class="fil0" d="M27.174 294.292l280.705 389.367 -307.879 425.574 230.909 0 194.7 -267.118 194.667 267.118 235.426 0 -312.396 -425.574 276.187 -389.367 -230.909 0 -158.457 226.392 -163.009 -226.392 -239.944 0 0 0zm1231.482 -9.069c-108.662,0 -199.219,40.761 -271.636,122.248 -75.464,78.476 -113.179,181.113 -113.179,307.879 0,120.742 39.22,221.84 117.697,303.361 78.475,81.487 169.031,122.248 271.67,122.248 48.289,0 92.062,-7.563 131.282,-22.656 42.267,-18.105 82.993,-45.278 122.249,-81.487l0 86.004 203.735 0 0 -814.941 -203.735 0 0 90.557c-39.256,-39.255 -79.982,-67.935 -122.249,-86.039 -42.266,-18.105 -87.545,-27.174 -135.834,-27.174l0 0zm-117.697 258.083c42.267,-45.279 95.075,-67.901 158.458,-67.901 66.394,0 119.235,21.117 158.456,63.383 45.279,45.279 67.935,102.604 67.935,172.044 0,72.452 -22.656,131.283 -67.935,176.562 -39.221,45.278 -92.062,67.935 -158.456,67.935 -63.383,0 -114.686,-22.657 -153.94,-67.935 -42.267,-45.279 -63.383,-104.144 -63.383,-176.562 0,-69.44 19.611,-125.26 58.865,-167.526l0 0zm1050.369 -543.306l-208.254 0 0 294.292 -104.143 0 0 176.562 104.143 0 0 371.261c0,75.465 9.07,132.824 27.174,172.045 15.093,36.243 37.716,64.922 67.901,86.038 33.197,21.117 73.958,31.692 122.248,31.692 12.081,0 24.162,0 36.209,0 33.197,-6.023 72.452,-16.598 117.73,-31.692l0 -158.456c-33.197,15.092 -61.876,22.622 -86.038,22.622 -12.082,0 -22.623,0 -31.692,0 -12.081,-6.024 -21.116,-13.587 -27.139,-22.622 -12.082,-15.093 -18.139,-43.773 -18.139,-86.04l0 -384.848 122.248 0 0 -176.562 -122.248 0 0 -294.292z"/>
  </g>
 </g>
</svg>
